<svg width="48" height="45" viewBox="0 0 48 45" fill="none" xmlns="http://www.w3.org/2000/svg">
<g clip-path="url(#clip0_3376_25790)">
<path d="M-0.203348 19.5616C0.952943 17.1136 3.10178 16.3437 5.59657 16.0962C12.1878 15.4385 17.9992 12.9781 22.939 8.51539C23.5177 7.9852 24.1228 7.48454 24.752 7.01533C26.0015 6.09666 26.9802 6.10343 28.0008 7.26815C28.7957 8.15605 29.4348 9.17197 29.8909 10.273C32.1708 16.0987 32.7396 22.1763 32.2654 28.3656C32.1047 30.4486 31.7366 32.5044 30.6389 34.3432C29.459 36.3189 28.2097 36.6549 26.197 35.5712C24.1843 34.4874 22.2512 33.2448 20.1636 32.349C18.3573 31.575 16.3967 31.1543 14.4837 30.6531C13.6283 30.4292 12.8012 31.6615 13.2867 32.505C13.8166 33.4267 13.7238 34.2074 13.3204 35.1199C13.1892 35.42 13.3911 36.0411 13.6532 36.3108C14.8315 37.5209 14.8865 38.4995 13.4603 39.4187C12.3656 40.1373 11.0656 40.5189 9.85949 41.0389L8.87037 40.7677C7.83315 39.8962 7.46565 38.7 7.39981 37.4121C7.27648 35.0386 7.20047 32.6631 7.10151 30.2239C6.80395 30.2232 6.43497 30.2113 6.06794 30.2234C2.3062 30.3595 0.0506234 28.5945 -0.572776 24.88C-0.764562 23.7256 -0.660149 22.5227 -0.691598 21.342L-0.203348 19.5616ZM24.5341 32.5138C21.7881 25.5563 21.3923 18.235 22.9125 10.7139C21.532 11.6604 20.2681 12.6006 18.9462 13.4186C14.791 15.9589 10.2096 17.1762 5.4043 17.7281C3.86655 17.9062 2.21497 18.1659 1.48866 19.8448C0.485121 22.1625 0.501275 24.5002 1.75174 26.7426C2.37195 27.8549 3.33391 28.5122 4.66088 28.5443C5.64621 28.5657 6.6319 28.5935 7.62138 28.6075C8.71683 28.6229 8.92001 28.836 8.86879 29.9535C8.82899 30.8742 8.7275 31.795 8.76795 32.7101C8.85169 34.5765 8.98294 36.4403 9.16168 38.3015C9.2115 38.8257 9.47985 39.5225 10.1841 39.2966C11.1412 38.9869 12.0323 38.4677 12.9502 38.0366L12.9562 37.7277C11.3135 36.9156 11.3275 35.6858 11.9197 34.3019C12.0139 34.0746 12.0931 33.7241 11.9872 33.544C11.1345 32.085 11.7612 30.8701 12.53 29.6409C12.8998 29.0681 13.3549 28.8589 13.9949 28.9919C15.1643 29.2339 16.3772 29.3559 17.4934 29.7535C19.8837 30.6004 22.2318 31.6017 24.5341 32.5138ZM23.6059 18.2996C26.2254 18.7606 27.4598 19.7585 27.8068 21.5957C28.2015 23.7629 27.224 25.373 24.4719 27.0239C24.9778 29.3833 25.7196 31.6733 27.0316 33.7454C27.786 34.9349 28.5381 34.9923 29.1694 33.7062C29.8007 32.4202 30.3364 31.0485 30.528 29.6674C31.3268 23.9542 30.792 18.3113 29.1515 12.7907C28.7413 11.4549 28.1626 10.1769 27.4294 8.98747C26.5468 7.55217 25.9144 7.65528 25.1959 9.16623C23.8312 12.0484 23.7227 15.1433 23.6059 18.2996Z" fill="#D1AE55"/>
<path d="M42.8883 4.36567C43.5108 5.39994 43.4237 5.77169 42.3556 6.26153C40.2837 7.21629 38.1956 8.13684 36.1171 9.07701C35.4976 9.35806 34.8969 9.46984 34.554 8.72706C34.211 7.98427 34.6809 7.60478 35.3058 7.32733C37.639 6.29109 39.9687 5.24961 42.2948 4.20292L42.8883 4.36567Z" fill="#D1AE55"/>
<path d="M45.1653 35.6191C44.6978 35.7185 44.1967 35.9789 43.7672 35.893C41.7303 35.479 39.7127 34.964 37.6854 34.4995C37.0472 34.3522 36.5353 34.0395 36.6991 33.3336C36.8678 32.5865 37.4887 32.4866 38.1649 32.6423C40.1231 33.1027 42.0916 33.5256 44.0298 34.0592C44.5144 34.1921 44.8982 34.693 45.3281 35.0257L45.1653 35.6191Z" fill="#D1AE55"/>
<path d="M37.2458 15.238C37.1236 15.0556 36.7665 14.7598 36.7795 14.472C36.7936 14.1334 37.0569 13.5845 37.3204 13.5079C39.6748 12.8391 42.0457 12.2315 44.4332 11.6851C44.7027 11.6251 45.2843 12.0483 45.376 12.35C45.4677 12.6516 45.1845 13.3354 44.9401 13.4045C42.5567 14.0909 40.1482 14.6833 37.7432 15.2936C37.5757 15.2961 37.4086 15.2775 37.2458 15.238Z" fill="#D1AE55"/>
<path d="M46.4744 19.413C46.6179 19.665 47.0286 20.0754 46.9633 20.3681C46.882 20.7265 46.4404 21.2201 46.0994 21.2691C44.757 21.4561 43.3955 21.4954 42.04 21.5831C41.1254 21.645 40.2034 21.7729 39.2982 21.7075C38.9519 21.6828 38.3528 21.176 38.3767 20.9337C38.4096 20.5578 38.8455 19.9456 39.1607 19.9129C41.4193 19.6815 43.6937 19.5629 45.9618 19.4128C46.064 19.4046 46.1664 19.4114 46.4744 19.413Z" fill="#D1AE55"/>
<path d="M38.8238 27.9904C38.6802 27.7383 38.2265 27.314 38.2347 26.8887C38.2467 26.1624 38.8607 26.0564 39.5219 26.1505C41.3746 26.414 43.2322 26.6362 45.0862 26.8873C45.7614 26.9768 46.4657 27.1699 46.3497 28.0272C46.2337 28.8845 45.5742 28.8929 44.8539 28.789C42.9707 28.5129 41.0783 28.2853 38.8238 27.9904Z" fill="#D1AE55"/>
<path d="M24.534 32.5138C22.2323 31.5997 19.8936 30.6031 17.4959 29.752C16.3798 29.3545 15.1668 29.2324 13.9974 28.9904C13.3574 28.8575 12.8924 29.0639 12.5325 29.6395C11.7696 30.8702 11.137 32.0836 11.9897 33.5426C12.0956 33.7226 12.0165 34.0732 11.9222 34.3004C11.3439 35.6882 11.324 36.9164 12.9557 37.7297L12.9497 38.0386C12.0317 38.4696 11.1406 38.9889 10.1836 39.2986C9.48162 39.5315 9.21311 38.8197 9.16112 38.3035C8.9807 36.4432 8.84946 34.5794 8.7674 32.7121C8.71759 31.7923 8.81801 30.8755 8.8578 29.9547C8.90902 28.8372 8.70584 28.6241 7.61039 28.6087C6.62487 28.5958 5.63918 28.568 4.64989 28.5455C3.32886 28.5151 2.3669 27.8578 1.74076 26.7438C0.490289 24.5015 0.474134 22.1637 1.47768 19.8461C2.21496 18.1659 3.86491 17.9122 5.40429 17.7281C10.2095 17.1762 14.791 15.9589 18.9462 13.4186C20.2779 12.6033 21.532 11.6604 22.9125 10.7138C21.3923 18.235 21.7881 25.5562 24.534 32.5138Z" fill="#D1AE55"/>
<path d="M23.6058 18.2996C23.7233 15.1413 23.8312 12.0484 25.1984 9.16477C25.9153 7.65975 26.5592 7.55343 27.4319 8.98601C28.1651 10.1755 28.7438 11.4535 29.1541 12.7892C30.7945 18.3099 31.3294 23.9528 30.5344 29.667C30.3412 31.054 29.8046 32.4447 29.1758 33.7059C28.5471 34.9671 27.7766 34.9302 27.0381 33.745C25.7233 31.6828 24.9843 29.3829 24.4784 27.0236C27.2305 25.3726 28.208 23.7625 27.8133 21.5953C27.4677 19.7607 26.2254 18.7606 23.6058 18.2996Z" fill="black"/>
</g>
<defs>
<clipPath id="clip0_3376_25790">
<rect width="48" height="44.1026" fill="white"/>
</clipPath>
</defs>
</svg>
