<svg width="215" height="69" viewBox="0 0 215 69" fill="none" xmlns="http://www.w3.org/2000/svg">
<path d="M70.6356 44.2446H66.5862L72.7563 26.3714H77.626L83.7874 44.2446H79.738L75.261 30.4557H75.1213L70.6356 44.2446ZM70.3825 37.2193H79.9474V40.1691H70.3825V37.2193ZM85.8688 49.2715V30.8397H89.5342V33.0913H89.7C89.8629 32.7306 90.0986 32.3641 90.4069 31.9917C90.7211 31.6135 91.1284 31.2994 91.6287 31.0492C92.1349 30.7932 92.7633 30.6652 93.5138 30.6652C94.4912 30.6652 95.393 30.9212 96.2192 31.4332C97.0454 31.9394 97.7057 32.7044 98.2003 33.7284C98.6948 34.7466 98.9421 36.0237 98.9421 37.5596C98.9421 39.0549 98.7006 40.3174 98.2177 41.3472C97.7406 42.3712 97.089 43.1479 96.2628 43.6774C95.4425 44.201 94.5232 44.4628 93.5051 44.4628C92.7836 44.4628 92.1698 44.3435 91.6636 44.105C91.1633 43.8665 90.7531 43.5668 90.4331 43.2061C90.1131 42.8396 89.8688 42.4701 89.7 42.0978H89.5866V49.2715H85.8688ZM89.508 37.5422C89.508 38.3393 89.6186 39.0345 89.8397 39.628C90.0608 40.2214 90.3808 40.684 90.7997 41.0156C91.2186 41.3414 91.7276 41.5043 92.3269 41.5043C92.932 41.5043 93.444 41.3385 93.8629 41.0069C94.2818 40.6694 94.5989 40.204 94.8141 39.6105C95.0352 39.0112 95.1458 38.3218 95.1458 37.5422C95.1458 36.7684 95.0381 36.0877 94.8229 35.5C94.6076 34.9124 94.2905 34.4528 93.8716 34.1211C93.4527 33.7895 92.9378 33.6237 92.3269 33.6237C91.7218 33.6237 91.2098 33.7837 90.7909 34.1037C90.3778 34.4237 90.0608 34.8775 89.8397 35.4651C89.6186 36.0527 89.508 36.7451 89.508 37.5422ZM101.421 49.2715V30.8397H105.086V33.0913H105.252C105.415 32.7306 105.65 32.3641 105.959 31.9917C106.273 31.6135 106.68 31.2994 107.181 31.0492C107.687 30.7932 108.315 30.6652 109.066 30.6652C110.043 30.6652 110.945 30.9212 111.771 31.4332C112.597 31.9394 113.258 32.7044 113.752 33.7284C114.247 34.7466 114.494 36.0237 114.494 37.5596C114.494 39.0549 114.252 40.3174 113.77 41.3472C113.292 42.3712 112.641 43.1479 111.815 43.6774C110.994 44.201 110.075 44.4628 109.057 44.4628C108.335 44.4628 107.722 44.3435 107.215 44.105C106.715 43.8665 106.305 43.5668 105.985 43.2061C105.665 42.8396 105.421 42.4701 105.252 42.0978H105.138V49.2715H101.421ZM105.06 37.5422C105.06 38.3393 105.17 39.0345 105.391 39.628C105.613 40.2214 105.933 40.684 106.351 41.0156C106.77 41.3414 107.279 41.5043 107.879 41.5043C108.484 41.5043 108.996 41.3385 109.415 41.0069C109.834 40.6694 110.151 40.204 110.366 39.6105C110.587 39.0112 110.698 38.3218 110.698 37.5422C110.698 36.7684 110.59 36.0877 110.375 35.5C110.159 34.9124 109.842 34.4528 109.423 34.1211C109.004 33.7895 108.49 33.6237 107.879 33.6237C107.274 33.6237 106.762 33.7837 106.343 34.1037C105.93 34.4237 105.613 34.8775 105.391 35.4651C105.17 36.0527 105.06 36.7451 105.06 37.5422ZM132.426 31.5117C132.356 30.8077 132.057 30.2608 131.527 29.871C130.998 29.4812 130.279 29.2863 129.371 29.2863C128.755 29.2863 128.234 29.3736 127.809 29.5481C127.385 29.7168 127.059 29.9525 126.832 30.255C126.611 30.5576 126.5 30.9008 126.5 31.2848C126.489 31.6048 126.556 31.8841 126.701 32.1226C126.852 32.3612 127.059 32.5677 127.321 32.7422C127.582 32.911 127.885 33.0593 128.228 33.1873C128.571 33.3095 128.938 33.4142 129.328 33.5015L130.934 33.8855C131.713 34.06 132.429 34.2928 133.08 34.5837C133.732 34.8746 134.296 35.2324 134.774 35.6571C135.251 36.0818 135.62 36.5822 135.882 37.1582C136.15 37.7342 136.286 38.3945 136.292 39.1392C136.286 40.2331 136.007 41.1814 135.454 41.9843C134.907 42.7814 134.116 43.401 133.08 43.8432C132.051 44.2795 130.809 44.4977 129.354 44.4977C127.911 44.4977 126.654 44.2766 125.584 43.8345C124.519 43.3923 123.687 42.7377 123.088 41.8708C122.494 40.9981 122.183 39.9189 122.154 38.6331H125.811C125.852 39.2323 126.023 39.7327 126.326 40.1341C126.634 40.5298 127.044 40.8294 127.556 41.033C128.074 41.2309 128.659 41.3298 129.31 41.3298C129.95 41.3298 130.506 41.2367 130.977 41.0505C131.454 40.8643 131.824 40.6054 132.086 40.2738C132.347 39.9421 132.478 39.5611 132.478 39.1305C132.478 38.7291 132.359 38.3916 132.121 38.1182C131.888 37.8447 131.545 37.612 131.091 37.42C130.643 37.228 130.093 37.0535 129.441 36.8964L127.495 36.4077C125.988 36.0411 124.798 35.468 123.926 34.6884C123.053 33.9088 122.62 32.8586 122.625 31.5379C122.62 30.4557 122.908 29.5103 123.489 28.7016C124.077 27.8929 124.883 27.2616 125.907 26.8078C126.931 26.354 128.094 26.1271 129.398 26.1271C130.724 26.1271 131.882 26.354 132.871 26.8078C133.866 27.2616 134.64 27.8929 135.192 28.7016C135.745 29.5103 136.03 30.447 136.048 31.5117H132.426ZM145.894 30.8397V33.6324H137.822V30.8397H145.894ZM139.654 27.6281H143.372V40.1254C143.372 40.4687 143.424 40.7363 143.529 40.9283C143.634 41.1145 143.779 41.2454 143.965 41.321C144.157 41.3967 144.379 41.4345 144.629 41.4345C144.803 41.4345 144.978 41.4199 145.152 41.3909C145.327 41.3559 145.461 41.3298 145.554 41.3123L146.138 44.0788C145.952 44.137 145.691 44.2039 145.353 44.2795C145.016 44.361 144.605 44.4104 144.123 44.4279C143.227 44.4628 142.441 44.3435 141.766 44.0701C141.097 43.7966 140.576 43.3719 140.204 42.7959C139.832 42.2199 139.648 41.4927 139.654 40.6141V27.6281ZM154.229 44.5064C152.873 44.5064 151.701 44.2184 150.712 43.6425C149.728 43.0606 148.969 42.2519 148.434 41.2163C147.898 40.1749 147.631 38.9676 147.631 37.5945C147.631 36.2098 147.898 34.9997 148.434 33.964C148.969 32.9226 149.728 32.1139 150.712 31.5379C151.701 30.9561 152.873 30.6652 154.229 30.6652C155.584 30.6652 156.754 30.9561 157.737 31.5379C158.726 32.1139 159.488 32.9226 160.023 33.964C160.559 34.9997 160.826 36.2098 160.826 37.5945C160.826 38.9676 160.559 40.1749 160.023 41.2163C159.488 42.2519 158.726 43.0606 157.737 43.6425C156.754 44.2184 155.584 44.5064 154.229 44.5064ZM154.246 41.6265C154.863 41.6265 155.378 41.4519 155.791 41.1029C156.204 40.748 156.515 40.265 156.725 39.6541C156.94 39.0432 157.047 38.348 157.047 37.5684C157.047 36.7887 156.94 36.0935 156.725 35.4826C156.515 34.8717 156.204 34.3888 155.791 34.0339C155.378 33.679 154.863 33.5015 154.246 33.5015C153.623 33.5015 153.1 33.679 152.675 34.0339C152.256 34.3888 151.939 34.8717 151.724 35.4826C151.514 36.0935 151.41 36.7887 151.41 37.5684C151.41 38.348 151.514 39.0432 151.724 39.6541C151.939 40.265 152.256 40.748 152.675 41.1029C153.1 41.4519 153.623 41.6265 154.246 41.6265ZM163.244 44.2446V30.8397H166.848V33.1786H166.988C167.232 32.3466 167.642 31.7183 168.218 31.2935C168.794 30.863 169.457 30.6477 170.208 30.6477C170.394 30.6477 170.595 30.6594 170.81 30.6826C171.025 30.7059 171.214 30.7379 171.377 30.7786V34.0775C171.203 34.0251 170.961 33.9786 170.653 33.9379C170.345 33.8971 170.063 33.8768 169.807 33.8768C169.26 33.8768 168.771 33.996 168.34 34.2346C167.916 34.4673 167.578 34.7931 167.328 35.212C167.084 35.6309 166.961 36.1138 166.961 36.6607V44.2446H163.244ZM178.785 44.5064C177.406 44.5064 176.219 44.2272 175.224 43.6686C174.235 43.1043 173.473 42.3072 172.937 41.2774C172.402 40.2418 172.134 39.0171 172.134 37.6033C172.134 36.2244 172.402 35.0142 172.937 33.9728C173.473 32.9313 174.226 32.1197 175.198 31.5379C176.175 30.9561 177.321 30.6652 178.636 30.6652C179.521 30.6652 180.344 30.8077 181.106 31.0928C181.874 31.3721 182.543 31.7939 183.113 32.3583C183.689 32.9226 184.137 33.6324 184.457 34.4877C184.777 35.3371 184.937 36.332 184.937 37.4724V38.4934H173.618V36.1895H181.438C181.438 35.6542 181.321 35.18 181.089 34.7669C180.856 34.3539 180.533 34.031 180.12 33.7982C179.713 33.5597 179.238 33.4404 178.697 33.4404C178.133 33.4404 177.633 33.5713 177.196 33.8331C176.766 34.0891 176.428 34.4353 176.184 34.8717C175.94 35.3022 175.814 35.7822 175.809 36.3117V38.5022C175.809 39.1654 175.931 39.7385 176.175 40.2214C176.425 40.7043 176.777 41.0767 177.231 41.3385C177.685 41.6003 178.223 41.7312 178.846 41.7312C179.259 41.7312 179.637 41.673 179.98 41.5567C180.323 41.4403 180.617 41.2658 180.862 41.033C181.106 40.8003 181.292 40.5152 181.42 40.1778L184.859 40.4047C184.684 41.2309 184.326 41.9523 183.785 42.569C183.25 43.1799 182.558 43.657 181.708 44.0003C180.865 44.3377 179.89 44.5064 178.785 44.5064Z" fill="#E5E5E3"/>
<path d="M54.2467 44.4917C53.5733 43.9759 52.9302 43.4216 52.3209 42.8315C51.0263 41.5326 50.1875 39.8491 49.9301 38.0334C49.6885 36.5413 49.7563 35.0155 50.1293 33.5508C50.5215 32.0483 51.2999 30.6746 52.3873 29.5662C52.6861 29.2508 53.0016 28.9519 53.3004 28.6199C53.4107 28.5202 53.4989 28.3986 53.5593 28.2627C53.6196 28.1269 53.6508 27.9799 53.6508 27.8313C53.6508 27.6826 53.6196 27.5356 53.5593 27.3998C53.4989 27.2639 53.4107 27.1423 53.3004 27.0426C52.6521 26.3242 51.8891 25.7183 51.0425 25.2496C49.6622 24.4792 48.1345 24.0096 46.5598 23.8716C45.0222 23.7457 43.4763 23.9787 42.044 24.5523C41.1641 24.8677 40.3007 25.1666 39.4374 25.4986C38.4853 25.8889 37.4178 25.8889 36.4656 25.4986C35.4861 25.1002 34.4899 24.7515 33.527 24.3863C32.4581 24.0329 31.3255 23.914 30.2065 24.0376C28.4565 24.1933 26.7753 24.7935 25.3225 25.7815C23.8697 26.7694 22.6934 28.1122 21.9053 29.6824C21.0847 31.1617 20.5814 32.7958 20.4277 34.4805C20.0014 38.3997 20.5725 42.3631 22.088 46.0025C23.2649 48.9221 24.9513 51.6092 27.0687 53.9385C27.5697 54.4868 28.1261 54.982 28.7289 55.4161C29.344 55.8747 30.0624 56.1752 30.8209 56.291C31.5794 56.4068 32.3548 56.3344 33.0787 56.0802C33.9586 55.8145 34.739 55.4825 35.7019 55.1836C37.6952 54.4933 39.8709 54.5464 41.8282 55.3331C42.6417 55.6651 43.4884 55.9474 44.3019 56.213C44.5786 56.2937 44.862 56.3493 45.1486 56.379H46.0784L46.6428 56.2628C47.7454 55.9988 48.7484 55.4223 49.5317 54.6026C50.7553 53.3464 51.8304 51.9537 52.7359 50.452C53.5519 49.1631 54.2466 47.8015 54.8112 46.3844C54.975 46.0562 55.0078 45.678 54.903 45.3265C54.7982 44.975 54.5635 44.6766 54.2467 44.4917Z" fill="#E5E5E3"/>
<path d="M46.3265 14.7568C46.2902 15.4202 46.1788 16.0775 45.9945 16.7159C45.6444 17.9648 45.0426 19.129 44.226 20.1369C43.4095 21.1447 42.3954 21.9749 41.2462 22.5765C40.5653 22.9354 39.8309 23.1821 39.0713 23.307C38.8501 23.349 38.6216 23.3294 38.4108 23.2503C38.2 23.1713 38.015 23.0358 37.8759 22.8587C37.8047 22.7774 37.7503 22.6826 37.7161 22.58C37.6819 22.4773 37.6685 22.3689 37.6767 22.261C37.7609 20.7798 38.2239 19.3449 39.0215 18.0939C40.3197 15.9302 42.4102 14.3579 44.8489 13.7108L45.1478 13.6278C45.3054 13.5924 45.4694 13.5965 45.6251 13.6399C45.7807 13.6832 45.9233 13.7644 46.04 13.8761C46.1567 13.9879 46.2439 14.1268 46.2939 14.2804C46.3439 14.4341 46.3551 14.5977 46.3265 14.7568Z" fill="#E5E5E3"/>
<path d="M200.724 1.98291H14.1812C7.4688 1.98291 2.02734 7.93744 2.02734 15.2827V53.5901C2.02734 60.9354 7.4688 66.8899 14.1812 66.8899H200.724C207.436 66.8899 212.877 60.9354 212.877 53.5901V15.2827C212.877 7.93744 207.436 1.98291 200.724 1.98291Z" stroke="#E5E5E3" stroke-width="3.27675" stroke-miterlimit="10"/>
</svg>
