<svg width="129" height="42" viewBox="0 0 129 42" fill="none" xmlns="http://www.w3.org/2000/svg">
<path d="M42.3617 26.8252H39.8901L43.6561 15.9161H46.6284L50.389 26.8252H47.9174L45.1848 18.409H45.0996L42.3617 26.8252ZM42.2072 22.5372H48.0453V24.3376H42.2072V22.5372ZM51.6594 29.8934V18.6434H53.8967V20.0177H53.9979C54.0973 19.7975 54.2411 19.5738 54.4293 19.3465C54.6211 19.1157 54.8697 18.9239 55.1751 18.7712C55.484 18.615 55.8675 18.5368 56.3256 18.5368C56.9222 18.5368 57.4727 18.6931 57.9769 19.0056C58.4812 19.3145 58.8842 19.7815 59.1861 20.4065C59.4879 21.028 59.6388 21.8074 59.6388 22.7449C59.6388 23.6576 59.4915 24.4282 59.1967 25.0567C58.9055 25.6817 58.5078 26.1558 58.0036 26.479C57.5028 26.7986 56.9418 26.9584 56.3203 26.9584C55.88 26.9584 55.5053 26.8856 55.1964 26.74C54.891 26.5944 54.6406 26.4115 54.4453 26.1913C54.25 25.9676 54.1009 25.7421 53.9979 25.5148H53.9286V29.8934H51.6594ZM53.8807 22.7343C53.8807 23.2208 53.9482 23.6452 54.0831 24.0074C54.218 24.3696 54.4134 24.6519 54.669 24.8543C54.9247 25.0532 55.2354 25.1526 55.6012 25.1526C55.9705 25.1526 56.283 25.0514 56.5387 24.849C56.7944 24.643 56.9879 24.3589 57.1193 23.9967C57.2543 23.6309 57.3217 23.2101 57.3217 22.7343C57.3217 22.262 57.256 21.8465 57.1246 21.4878C56.9933 21.1292 56.7997 20.8486 56.544 20.6462C56.2884 20.4438 55.9741 20.3426 55.6012 20.3426C55.2319 20.3426 54.9194 20.4403 54.6637 20.6356C54.4116 20.8309 54.218 21.1079 54.0831 21.4665C53.9482 21.8252 53.8807 22.2478 53.8807 22.7343ZM61.1516 29.8934V18.6434H63.3888V20.0177H63.4901C63.5895 19.7975 63.7333 19.5738 63.9215 19.3465C64.1133 19.1157 64.3619 18.9239 64.6673 18.7712C64.9762 18.615 65.3597 18.5368 65.8178 18.5368C66.4144 18.5368 66.9648 18.6931 67.4691 19.0056C67.9734 19.3145 68.3764 19.7815 68.6783 20.4065C68.9801 21.028 69.131 21.8074 69.131 22.7449C69.131 23.6576 68.9837 24.4282 68.6889 25.0567C68.3977 25.6817 68 26.1558 67.4957 26.479C66.995 26.7986 66.4339 26.9584 65.8125 26.9584C65.3722 26.9584 64.9975 26.8856 64.6886 26.74C64.3832 26.5944 64.1328 26.4115 63.9375 26.1913C63.7422 25.9676 63.593 25.7421 63.4901 25.5148H63.4208V29.8934H61.1516ZM63.3729 22.7343C63.3729 23.2208 63.4403 23.6452 63.5753 24.0074C63.7102 24.3696 63.9055 24.6519 64.1612 24.8543C64.4169 25.0532 64.7276 25.1526 65.0934 25.1526C65.4627 25.1526 65.7752 25.0514 66.0309 24.849C66.2866 24.643 66.4801 24.3589 66.6115 23.9967C66.7464 23.6309 66.8139 23.2101 66.8139 22.7343C66.8139 22.262 66.7482 21.8465 66.6168 21.4878C66.4854 21.1292 66.2919 20.8486 66.0362 20.6462C65.7805 20.4438 65.4663 20.3426 65.0934 20.3426C64.7241 20.3426 64.4116 20.4403 64.1559 20.6356C63.9038 20.8309 63.7102 21.1079 63.5753 21.4665C63.4403 21.8252 63.3729 22.2478 63.3729 22.7343ZM80.0761 19.0535C80.0335 18.6238 79.8506 18.29 79.5274 18.0521C79.2043 17.8142 78.7657 17.6952 78.2117 17.6952C77.8353 17.6952 77.5175 17.7485 77.2583 17.855C76.999 17.958 76.8002 18.1018 76.6617 18.2865C76.5267 18.4711 76.4593 18.6807 76.4593 18.915C76.4521 19.1104 76.493 19.2808 76.5818 19.4264C76.6741 19.572 76.8002 19.6981 76.96 19.8046C77.1198 19.9076 77.3044 19.9981 77.5139 20.0763C77.7235 20.1508 77.9472 20.2148 78.1851 20.268L79.1652 20.5024C79.6411 20.6089 80.0779 20.751 80.4756 20.9285C80.8733 21.1061 81.2178 21.3245 81.509 21.5837C81.8002 21.843 82.0257 22.1483 82.1855 22.4999C82.3488 22.8515 82.4323 23.2545 82.4358 23.7091C82.4323 24.3767 82.2618 24.9555 81.9244 25.4456C81.5906 25.9321 81.1077 26.3103 80.4756 26.5802C79.847 26.8465 79.0889 26.9797 78.2011 26.9797C77.3204 26.9797 76.5534 26.8447 75.8999 26.5748C75.2501 26.305 74.7423 25.9055 74.3765 25.3763C74.0143 24.8437 73.8243 24.1849 73.8066 23.4001H76.0384C76.0633 23.7659 76.1681 24.0713 76.3527 24.3163C76.5409 24.5578 76.7913 24.7407 77.1038 24.865C77.4198 24.9857 77.7767 25.0461 78.1744 25.0461C78.5651 25.0461 78.9042 24.9893 79.1919 24.8756C79.483 24.762 79.7085 24.604 79.8683 24.4015C80.0281 24.1991 80.108 23.9665 80.108 23.7037C80.108 23.4587 80.0352 23.2528 79.8896 23.0858C79.7476 22.9189 79.5381 22.7769 79.2611 22.6597C78.9877 22.5425 78.6521 22.436 78.2544 22.3401L77.0665 22.0418C76.1468 21.8181 75.4205 21.4683 74.8879 20.9925C74.3552 20.5166 74.0906 19.8756 74.0942 19.0695C74.0906 18.409 74.2664 17.8319 74.6215 17.3383C74.9802 16.8447 75.472 16.4594 76.097 16.1824C76.722 15.9055 77.4323 15.767 78.2277 15.767C79.0374 15.767 79.7441 15.9055 80.3477 16.1824C80.955 16.4594 81.4273 16.8447 81.7646 17.3383C82.102 17.8319 82.276 18.4037 82.2867 19.0535H80.0761ZM88.2965 18.6434V20.3479H83.3693V18.6434H88.2965ZM84.4879 16.6831H86.7571V24.311C86.7571 24.5205 86.7891 24.6839 86.853 24.801C86.9169 24.9147 87.0057 24.9946 87.1193 25.0407C87.2365 25.0869 87.3714 25.11 87.5241 25.11C87.6307 25.11 87.7372 25.1011 87.8438 25.0834C87.9503 25.0621 88.032 25.0461 88.0888 25.0354L88.4457 26.724C88.332 26.7595 88.1722 26.8003 87.9663 26.8465C87.7603 26.8962 87.5099 26.9264 87.2152 26.9371C86.6683 26.9584 86.1889 26.8856 85.777 26.7187C85.3686 26.5518 85.0508 26.2925 84.8235 25.941C84.5962 25.5894 84.4844 25.1455 84.4879 24.6093V16.6831ZM93.3835 26.985C92.5561 26.985 91.8406 26.8092 91.2369 26.4577C90.6367 26.1025 90.1733 25.6089 89.8466 24.9768C89.5199 24.3412 89.3565 23.6043 89.3565 22.7662C89.3565 21.9211 89.5199 21.1824 89.8466 20.5503C90.1733 19.9147 90.6367 19.4211 91.2369 19.0695C91.8406 18.7144 92.5561 18.5368 93.3835 18.5368C94.2109 18.5368 94.9247 18.7144 95.5249 19.0695C96.1286 19.4211 96.5938 19.9147 96.9205 20.5503C97.2472 21.1824 97.4105 21.9211 97.4105 22.7662C97.4105 23.6043 97.2472 24.3412 96.9205 24.9768C96.5938 25.6089 96.1286 26.1025 95.5249 26.4577C94.9247 26.8092 94.2109 26.985 93.3835 26.985ZM93.3942 25.2272C93.7706 25.2272 94.0849 25.1206 94.337 24.9076C94.5891 24.691 94.7791 24.3962 94.907 24.0233C95.0384 23.6505 95.104 23.2261 95.104 22.7503C95.104 22.2744 95.0384 21.8501 94.907 21.4772C94.7791 21.1043 94.5891 20.8096 94.337 20.593C94.0849 20.3763 93.7706 20.268 93.3942 20.268C93.0142 20.268 92.6946 20.3763 92.4354 20.593C92.1797 20.8096 91.9862 21.1043 91.8548 21.4772C91.7269 21.8501 91.663 22.2744 91.663 22.7503C91.663 23.2261 91.7269 23.6505 91.8548 24.0233C91.9862 24.3962 92.1797 24.691 92.4354 24.9076C92.6946 25.1206 93.0142 25.2272 93.3942 25.2272ZM98.886 26.8252V18.6434H101.086V20.0709H101.171C101.32 19.5631 101.571 19.1796 101.922 18.9204C102.274 18.6576 102.679 18.5262 103.137 18.5262C103.25 18.5262 103.373 18.5333 103.504 18.5475C103.636 18.5617 103.751 18.5812 103.85 18.6061V20.6196C103.744 20.5876 103.597 20.5592 103.408 20.5344C103.22 20.5095 103.048 20.4971 102.892 20.4971C102.558 20.4971 102.26 20.5699 101.997 20.7155C101.738 20.8575 101.532 21.0564 101.379 21.3121C101.23 21.5677 101.155 21.8625 101.155 22.1963V26.8252H98.886ZM108.372 26.985C107.53 26.985 106.805 26.8145 106.198 26.4736C105.595 26.1292 105.129 25.6427 104.803 25.0141C104.476 24.382 104.313 23.6345 104.313 22.7716C104.313 21.93 104.476 21.1913 104.803 20.5557C105.129 19.92 105.589 19.4246 106.182 19.0695C106.779 18.7144 107.478 18.5368 108.281 18.5368C108.821 18.5368 109.323 18.6238 109.788 18.7979C110.257 18.9683 110.666 19.2258 111.014 19.5702C111.365 19.9147 111.639 20.3479 111.834 20.8699C112.029 21.3884 112.127 21.9956 112.127 22.6917V23.3149H105.218V21.9086H109.991C109.991 21.5819 109.92 21.2925 109.778 21.0404C109.636 20.7883 109.439 20.5912 109.187 20.4491C108.938 20.3035 108.649 20.2307 108.318 20.2307C107.974 20.2307 107.668 20.3106 107.402 20.4704C107.139 20.6267 106.933 20.838 106.784 21.1043C106.635 21.3671 106.559 21.6601 106.555 21.9832V23.3202C106.555 23.7251 106.63 24.0748 106.779 24.3696C106.932 24.6643 107.146 24.8916 107.423 25.0514C107.7 25.2112 108.029 25.2911 108.409 25.2911C108.661 25.2911 108.892 25.2556 109.101 25.1846C109.311 25.1135 109.49 25.007 109.639 24.865C109.788 24.7229 109.902 24.5489 109.98 24.343L112.079 24.4814C111.972 24.9857 111.754 25.426 111.424 25.8025C111.097 26.1753 110.674 26.4665 110.156 26.676C109.641 26.882 109.046 26.985 108.372 26.985Z" fill="#D1AE55"/>
<path d="M32.4526 27.4293C32.047 27.1186 31.6597 26.7847 31.2926 26.4293C30.5129 25.6469 30.0077 24.6329 29.8526 23.5393C29.7071 22.6406 29.748 21.7215 29.9726 20.8393C30.2088 19.9343 30.6777 19.1069 31.3326 18.4393C31.5126 18.2493 31.7026 18.0693 31.8826 17.8693C31.9491 17.8093 32.0022 17.736 32.0386 17.6542C32.0749 17.5723 32.0937 17.4838 32.0937 17.3943C32.0937 17.3047 32.0749 17.2162 32.0386 17.1344C32.0022 17.0525 31.9491 16.9793 31.8826 16.9193C31.4921 16.4865 31.0326 16.1216 30.5226 15.8393C29.6912 15.3753 28.7711 15.0924 27.8226 15.0093C26.8964 14.9334 25.9653 15.0738 25.1026 15.4193C24.5726 15.6093 24.0526 15.7893 23.5326 15.9893C22.9591 16.2243 22.3161 16.2243 21.7426 15.9893C21.1526 15.7493 20.5526 15.5393 19.9726 15.3193C19.3288 15.1064 18.6466 15.0348 17.9726 15.1093C16.9186 15.203 15.906 15.5646 15.0309 16.1596C14.1558 16.7547 13.4473 17.5635 12.9726 18.5093C12.4783 19.4003 12.1752 20.3845 12.0826 21.3993C11.8258 23.7599 12.1698 26.1471 13.0826 28.3393C13.7915 30.0978 14.8073 31.7163 16.0826 33.1193C16.3844 33.4496 16.7196 33.7478 17.0826 34.0093C17.4531 34.2855 17.8858 34.4665 18.3427 34.5362C18.7996 34.606 19.2666 34.5624 19.7026 34.4093C20.2326 34.2493 20.7026 34.0493 21.2826 33.8693C22.4833 33.4535 23.7937 33.4854 24.9726 33.9593C25.4626 34.1593 25.9726 34.3293 26.4626 34.4893C26.6293 34.5379 26.8 34.5714 26.9726 34.5893H27.5326L27.8726 34.5193C28.5367 34.3602 29.1409 34.013 29.6126 33.5193C30.3497 32.7626 30.9972 31.9238 31.5426 31.0193C32.0341 30.243 32.4526 29.4228 32.7926 28.5693C32.8913 28.3716 32.9111 28.1438 32.8479 27.9321C32.7848 27.7204 32.6435 27.5406 32.4526 27.4293ZM18.7826 19.6593C18.1897 20.0246 17.6844 20.5159 17.3025 21.0983C16.9206 21.6806 16.6714 22.3399 16.5726 23.0293C16.4726 24.2993 16.6426 24.3493 16.5726 25.6693C16.5726 25.9393 16.1426 25.9493 16.0126 25.7193C15.3426 24.4893 14.1026 21.4893 16.5426 19.6193C16.6739 19.5167 16.8186 19.4326 16.9726 19.3693C17.5021 19.1556 18.0728 19.0633 18.6426 19.0993C18.7044 19.1073 18.7624 19.1337 18.809 19.1751C18.8555 19.2166 18.8885 19.2711 18.9036 19.3315C18.9187 19.392 18.9153 19.4556 18.8937 19.5141C18.8721 19.5725 18.8334 19.6231 18.7826 19.6593Z" fill="#D1AE55"/>
<path d="M27.6821 9.51954C27.6602 9.91916 27.5931 10.315 27.4821 10.6995C27.2712 11.4518 26.9087 12.153 26.4169 12.7601C25.9251 13.3672 25.3143 13.8672 24.6221 14.2295C24.212 14.4457 23.7696 14.5943 23.3121 14.6695C23.1789 14.6948 23.0413 14.683 22.9143 14.6354C22.7873 14.5878 22.6759 14.5062 22.5921 14.3995C22.5492 14.3505 22.5165 14.2934 22.4958 14.2316C22.4752 14.1698 22.4672 14.1045 22.4721 14.0395C22.5228 13.1473 22.8017 12.2831 23.2821 11.5295C24.064 10.2263 25.3232 9.2793 26.7921 8.88954L26.9721 8.83954C27.0671 8.81821 27.1658 8.8207 27.2596 8.8468C27.3534 8.87289 27.4392 8.92178 27.5095 8.9891C27.5798 9.05642 27.6323 9.14008 27.6625 9.23263C27.6926 9.32518 27.6993 9.42374 27.6821 9.51954Z" fill="#D1AE55"/>
<path d="M120.68 1.8252H8.32053C4.27752 1.8252 1 5.41175 1 9.83598V32.9094C1 37.3337 4.27752 40.9202 8.32053 40.9202H120.68C124.723 40.9202 128 37.3337 128 32.9094V9.83598C128 5.41175 124.723 1.8252 120.68 1.8252Z" stroke="#D1AE55" stroke-width="2" stroke-miterlimit="10"/>
</svg>
