<svg width="50" height="48" viewBox="0 0 50 48" fill="none" xmlns="http://www.w3.org/2000/svg">
<g clip-path="url(#clip0_3316_23645)">
<path d="M45.7325 2.6925H23.6656C21.7357 2.6925 20.1712 4.25702 20.1712 6.18694V41.8131C20.1712 43.743 21.7357 45.3075 23.6656 45.3075H45.7325C47.6624 45.3075 49.2269 43.743 49.2269 41.8131V6.18694C49.2269 4.25702 47.6624 2.6925 45.7325 2.6925Z" fill="#E5E5E3" stroke="#222222" stroke-width="1.16223" stroke-miterlimit="10"/>
<path d="M24.8782 8.37577L24.4908 9.59223H23.9601L25.2773 5.71814H25.8778L27.1988 9.59223H26.6681L26.2535 8.37577H24.8782ZM26.1489 7.98836L25.7615 6.87649C25.6763 6.62468 25.6182 6.39223 25.5601 6.16753C25.5058 6.39998 25.44 6.63243 25.3664 6.86874L24.979 7.98836H26.1489Z" fill="#222222"/>
<path d="M44.5702 39.2484L44.9848 38.032H45.5388L44.2177 41.9061H43.6017L42.2884 38.032H42.8036L43.1911 39.2484H44.5702ZM43.3034 39.6359L43.6908 40.7555C43.7644 40.9879 43.8264 41.2242 43.8845 41.4567C43.9426 41.232 44.0007 40.9995 44.086 40.7477L44.4734 39.6359H43.3034Z" fill="#222222"/>
<path d="M40.3901 24.585L35.3964 30.5201C35.3109 30.6213 35.2044 30.7025 35.0843 30.7583C34.9642 30.814 34.8334 30.8429 34.701 30.8429C34.5686 30.8429 34.4377 30.814 34.3176 30.7583C34.1975 30.7025 34.091 30.6213 34.0056 30.5201L29.0119 24.585C28.875 24.4223 28.7999 24.2165 28.7999 24.0039C28.7999 23.7913 28.875 23.5855 29.0119 23.4228L34.0056 17.4799C34.091 17.3788 34.1975 17.2975 34.3176 17.2417C34.4377 17.186 34.5686 17.1571 34.701 17.1571C34.8334 17.1571 34.9642 17.186 35.0843 17.2417C35.2044 17.2975 35.3109 17.3788 35.3964 17.4799L40.3901 23.415C40.5268 23.5793 40.6017 23.7863 40.6017 24C40.6017 24.2138 40.5268 24.4207 40.3901 24.585Z" fill="#222222"/>
<path d="M24.8143 0.651764L3.40664 6.00516C1.53437 6.47336 0.396151 8.37068 0.864348 10.2429L9.50722 44.8048C9.97542 46.6771 11.8727 47.8153 13.745 47.3471L35.1526 41.9937C37.0249 41.5255 38.1631 39.6282 37.6949 37.7559L29.052 3.19406C28.5838 1.32179 26.6865 0.183567 24.8143 0.651764Z" fill="#E5E5E3" stroke="#222222" stroke-width="1.09637" stroke-miterlimit="10"/>
<path d="M22.6507 18.3245C23.3782 18.3238 24.0933 18.5124 24.7258 18.8718C25.3583 19.2313 25.8864 19.7491 26.2581 20.3745C26.6298 20.9999 26.8323 21.7112 26.8458 22.4386C26.8593 23.1659 26.6832 23.8843 26.3349 24.523C25.0061 26.9947 23.4177 29.3346 21.9649 31.7676C21.5969 32.3835 21.287 32.5075 20.6284 32.0775C18.3039 30.5782 15.9175 29.2068 13.6279 27.6726C12.7668 27.1169 12.1387 26.2655 11.8618 25.2787C11.585 24.292 11.6785 23.2381 12.1248 22.3155C12.5711 21.3929 13.3393 20.6654 14.2848 20.2699C15.2303 19.8745 16.2877 19.8384 17.2579 20.1685C18.4202 20.5869 18.9741 20.3119 19.6831 19.4944C20.3921 18.677 21.5194 18.3167 22.6507 18.3245Z" fill="#222222"/>
<path d="M5.68599 12.2499V13.6639L5.14362 13.8382L5.20173 9.33655L5.83708 9.13123L8.54894 12.738L7.96008 12.9201L7.11165 11.785L5.68599 12.2499ZM6.88308 11.4092L6.10826 10.3709C5.93006 10.1346 5.79446 9.91379 5.65887 9.69684C5.67824 9.96028 5.69374 10.2276 5.69374 10.4988V11.8043L6.88308 11.4092Z" fill="#222222"/>
<path d="M32.6846 36.6218L32.7155 35.1806L33.285 34.9985L33.1843 39.5816L32.5412 39.7869L29.8293 36.0949L30.3833 35.9206L31.224 37.0828L32.6846 36.6218ZM31.4642 37.4663L32.239 38.5356C32.3979 38.7603 32.5451 38.9927 32.6846 39.2174C32.6846 38.9579 32.6536 38.6944 32.6613 38.3961L32.6884 37.075L31.4642 37.4663Z" fill="#222222"/>
</g>
<defs>
<clipPath id="clip0_3316_23645">
<rect width="49.5961" height="48" fill="white" transform="translate(0.211914)"/>
</clipPath>
</defs>
</svg>
