<svg width="101" height="100" viewBox="0 0 101 100" fill="none" xmlns="http://www.w3.org/2000/svg">
<g clip-path="url(#clip0_3263_23874)">
<path d="M69.4685 62.5713C69.4685 58.2839 69.5141 53.9966 69.4685 49.7092C69.4046 45.2883 67.3073 42.015 63.3893 40.0809C56.842 36.8532 50.2217 33.7743 43.6318 30.6317C41.2001 29.4778 38.8293 28.2694 36.0328 28.1722C32.9507 28.069 30.1968 28.8736 27.4398 30.24C20.5339 33.665 13.4911 36.8198 6.57295 40.2175C2.79472 42.0697 0.764265 45.2791 0.727789 49.4936C0.654839 58.2991 0.630522 67.1046 0.727789 75.9101C0.776423 79.8817 2.6397 83.1154 6.05926 85.1225C13.8893 89.7195 21.771 94.2316 29.7347 98.5979C33.209 100.502 37.0146 100.462 40.5041 98.5372C48.2551 94.262 55.921 89.8349 63.6051 85.4291C67.438 83.2308 69.3256 79.7845 69.432 75.4304C69.5505 71.146 69.4685 66.8556 69.4685 62.5713ZM30.5402 42.6041C32.7409 40.6912 37.4827 40.7033 39.6591 42.6284C40.8749 43.7154 40.8384 45.0909 39.5405 46.0899C38.1818 47.1344 36.6043 47.4228 34.9416 47.4137C34.9021 47.52 34.8595 47.6232 34.82 47.7174C33.437 47.186 31.9597 46.8064 30.6922 46.0807C29.2393 45.2427 29.2545 43.7245 30.5402 42.6041ZM12.6947 81.1843C11.0868 81.6124 9.89828 80.8017 8.95296 79.6266C7.17479 77.4101 6.35106 74.9294 7.36933 72.1359C7.97725 70.4811 9.45146 69.9861 11.0503 70.7392C13.1446 71.729 14.7586 74.6682 14.7404 77.4708C14.7404 77.5072 14.7404 77.5467 14.7404 77.5831C14.6917 79.411 13.9197 80.8624 12.6947 81.1843ZM14.5945 61.545C14.0504 64.0136 12.0898 64.7939 9.99555 63.3942C7.56386 61.7788 6.25075 57.5825 7.33285 54.9955C8.05932 53.2587 9.56696 52.6697 11.1992 53.614C13.7099 55.0623 14.5154 57.4854 14.7768 60.1938C14.7191 60.6462 14.6917 61.1047 14.5945 61.545ZM28.4399 89.7378C27.1724 90.2752 25.6465 89.6588 24.4367 88.0769C22.8713 86.0364 22.1084 83.7379 22.8379 81.1661C23.4458 78.9981 25.3243 78.324 27.1724 79.6084C29.3639 81.1266 30.212 83.3705 30.3487 85.6174C30.3032 87.5182 30.1086 89.0303 28.4399 89.7378ZM29.8138 71.3161C29.2059 72.6764 27.8441 73.0802 26.4702 72.476C23.54 71.1946 21.7011 66.4943 22.9838 63.5581C23.7558 61.7818 25.2696 61.3021 26.9626 62.2434C28.6557 63.1847 30.4339 65.9842 30.4855 68.726C30.2667 69.5944 30.1755 70.5175 29.8138 71.3161ZM44.641 89.1153C42.5892 90.7428 40.3855 89.8501 39.9022 87.2783C39.8171 86.835 39.8019 86.3674 39.7654 86.0212C39.884 83.8533 40.5162 81.9889 41.9661 80.4647C42.9114 79.4718 44.0027 78.6428 45.4617 79.0861C46.9815 79.5446 47.4891 80.9323 47.559 82.3017C47.6927 84.998 46.8113 87.3967 44.641 89.1153ZM45.1668 71.474C44.1881 72.4699 43.0057 72.9921 41.6743 72.5245C40.343 72.0569 40.0025 70.8758 39.8506 69.6187C39.8171 69.3546 39.7958 69.0904 39.7715 68.8596C39.8536 66.7949 40.4615 64.9579 41.8081 63.3942C43.0239 62.0096 44.5133 61.4114 45.6805 61.9397C47.2003 62.629 47.5772 64.0652 47.5833 65.5287C47.6037 66.6314 47.4001 67.7268 46.9847 68.7486C46.5694 69.7705 45.951 70.6976 45.1668 71.474ZM61.1643 79.6722C60.1946 80.7713 59.0365 81.6276 57.5015 81.1904C55.9665 80.7531 55.5288 79.3685 55.4437 77.9718C55.2857 75.3423 56.1611 73.0377 58.1794 71.2918C59.0335 70.56 60.0761 70.0043 61.3102 70.5479C62.5443 71.0914 62.9394 72.1511 63.1339 73.3565C63.1856 73.6905 63.1917 74.0336 63.213 74.313C63.1035 76.3807 62.4926 78.1722 61.1552 79.6782L61.1643 79.6722ZM59.9484 63.5065C58.073 64.7211 56.4073 64.0713 55.693 61.958C54.8176 59.3892 56.2067 55.3629 58.4773 53.8751C60.6202 52.4723 62.6324 53.3316 63.1005 55.8609C63.1826 56.3042 63.1947 56.7718 63.2373 57.2121C62.9789 59.7748 62.1886 62.0551 59.9393 63.5126L59.9484 63.5065ZM64.6021 47.2801C61.5929 48.9501 58.5766 50.612 55.5532 52.2658C49.556 55.5633 43.5589 58.873 37.5465 62.1432C36.8444 62.5258 36.6559 62.9934 36.659 63.7585C36.6833 73.9668 36.6894 84.1751 36.6772 94.3834C36.6939 94.6868 36.6939 94.9909 36.6772 95.2943C36.5769 96.2235 36.1392 96.8823 35.1331 96.937C34.2212 96.9856 33.5586 96.2842 33.5403 95.2488C33.5099 93.5788 33.5403 91.9088 33.5403 90.2388V79.3078C33.5403 74.1854 33.5191 69.0661 33.5616 63.9437C33.5616 63.1209 33.3397 62.6563 32.6072 62.2494C24.692 57.8771 16.7891 53.4824 8.89825 49.0655C7.68241 48.3833 6.46657 47.685 5.25072 46.9704C4.37228 46.4542 4.0592 45.5221 4.53338 44.769C5.07443 43.9128 5.86776 43.7913 6.70669 44.2528C10.1779 46.1759 13.636 48.1111 17.0809 50.0584C22.8561 53.2921 28.6314 56.5411 34.4066 59.7505C34.5806 59.8264 34.7689 59.864 34.9588 59.8609C35.1486 59.8577 35.3356 59.8139 35.507 59.7323C44.4799 54.8194 53.4346 49.8884 62.371 44.9391C62.6354 44.7933 62.8999 44.6354 63.1735 44.517C64.1735 44.0616 65.0732 44.262 65.4562 45.0119C65.8787 45.85 65.5535 46.7609 64.5899 47.2862L64.6021 47.2801Z" fill="url(#paint0_linear_3263_23874)"/>
<path d="M99.7123 39.8251C97.0618 32.5864 94.545 25.2991 91.9826 18.027C90.4294 13.6182 87.4992 10.4937 83.1191 8.89965C75.4867 6.12137 67.8147 3.43418 60.1488 0.759129C55.9846 -0.698332 52.0878 -0.112311 48.9023 2.98479C42.6832 9.03325 36.604 15.2275 30.4549 21.3609C29.0615 22.6864 28.0773 24.3828 27.619 26.2495C29.8227 25.8426 32.0416 25.3598 34.2818 25.0532C35.1937 24.9287 35.9596 24.7981 36.7469 24.2121C38.7196 22.7729 40.1604 23.2587 41.0935 25.5056C41.2326 25.8388 41.4785 26.1165 41.7926 26.295C45.1362 27.9134 48.4798 29.4984 51.8568 31.1138C52.2187 30.6225 52.6095 30.153 53.027 29.7079C53.4784 29.2497 53.9896 28.8545 54.5468 28.5329C56.1153 27.6796 57.6655 28.2292 58.1761 29.9296C58.4297 30.9073 58.4988 31.9236 58.3798 32.9265C58.3068 33.7463 58.2126 34.3475 59.1974 34.6511C59.9148 34.8728 60.5531 35.3374 61.2613 35.5894C61.6625 35.7321 62.2917 35.8505 62.5349 35.644C62.7781 35.4376 62.8693 34.7665 62.7629 34.3718C61.5136 29.7413 60.2187 25.123 58.9299 20.5016C57.4952 15.3702 56.0454 10.2417 54.6289 5.10418C54.3249 4.00501 54.7809 3.18823 55.711 2.9605C56.5165 2.7601 57.3341 3.26414 57.5956 4.19631C58.6837 8.04238 59.7628 11.8966 60.8327 15.7588C62.5258 21.8316 64.2097 27.9043 65.9362 33.9771C66.0019 34.1735 66.1084 34.3537 66.2488 34.506C66.3892 34.6583 66.5603 34.7792 66.7509 34.8607C70.6263 36.0084 74.5201 37.0954 78.4077 38.2007C84.3593 39.895 90.3098 41.5933 96.2593 43.2957C97.3597 43.5993 97.8734 44.4252 97.6332 45.3058C97.3931 46.1863 96.5359 46.5568 95.4295 46.241L68.2737 38.562C67.8056 38.4284 67.3284 38.3373 66.8208 38.2219C67.9302 39.4365 68.9485 40.6024 70.0093 41.7289C70.3383 42.1158 70.726 42.4488 71.1583 42.7158C72.289 43.3382 72.7662 44.2947 72.5383 45.409C72.4215 46.0937 72.3807 46.7892 72.4167 47.4829C72.444 48.3938 72.6112 49.2895 72.6142 50.1944C72.6305 56.5323 72.6305 62.8692 72.6142 69.2051V73.5836C75.3499 73.0583 77.6205 72.0654 79.5142 70.1525C84.4322 65.1515 89.4294 60.2356 94.3657 55.256C95.9615 53.6467 97.7092 52.1133 98.9616 50.252C101.138 47.0001 101.044 43.4627 99.7123 39.8251ZM50.0057 21.537C48.1302 22.448 46.3794 21.4733 46.0542 19.4116C45.659 16.8914 47.6712 13.5575 50.0968 12.7012C52.2762 11.936 53.7839 13.2052 53.7444 16.4056C53.6132 17.5091 53.2006 18.5606 52.5459 19.4591C51.8913 20.3576 51.0166 21.0731 50.0057 21.537ZM78.7208 29.717C75.8119 29.5895 72.0641 26.0005 71.7784 23.0674C71.6203 21.4277 72.6173 20.2982 74.4714 20.3346C77.1037 20.7324 79.0856 22.4297 80.4504 24.8892C80.82 25.589 81.058 26.3506 81.1525 27.1361C81.3501 28.6847 80.2528 29.7838 78.7208 29.717ZM88.3655 52.2986C86.3928 54.0961 84.11 55.0313 81.3987 54.5971C78.9944 54.2236 78.1463 52.2803 79.5263 50.2581C81.1099 47.9444 83.5173 47.1519 86.0584 46.8574C86.3209 46.8609 86.5828 46.8812 86.8426 46.9181C88.0099 47.1701 89.2409 47.4495 89.63 48.7399C90.0555 50.1731 89.399 51.3543 88.3655 52.2986Z" fill="url(#paint1_linear_3263_23874)"/>
</g>
<defs>
<linearGradient id="paint0_linear_3263_23874" x1="0.663635" y1="64.0835" x2="69.4961" y2="64.0835" gradientUnits="userSpaceOnUse">
<stop stop-color="#DDB759"/>
<stop offset="1" stop-color="#9C8443"/>
</linearGradient>
<linearGradient id="paint1_linear_3263_23874" x1="27.619" y1="36.7915" x2="100.664" y2="36.7915" gradientUnits="userSpaceOnUse">
<stop stop-color="#DDB759"/>
<stop offset="1" stop-color="#9C8443"/>
</linearGradient>
<clipPath id="clip0_3263_23874">
<rect width="100" height="100" fill="white" transform="translate(0.666626)"/>
</clipPath>
</defs>
</svg>
