<svg width="50" height="51" viewBox="0 0 50 51" fill="none" xmlns="http://www.w3.org/2000/svg">
<path d="M30.858 27.3266L31.524 23.0136H27.3891V20.2111C27.3612 19.89 27.4056 19.5667 27.5191 19.265C27.6326 18.9634 27.8123 18.691 28.0449 18.4679C28.2776 18.2448 28.5573 18.0767 28.8635 17.9759C29.1697 17.8752 29.4946 17.8443 29.8143 17.8856H31.7526V14.2185C30.645 14.0358 29.5253 13.9362 28.4029 13.9204C25.0035 13.9204 22.7771 15.9875 22.7771 19.7241V23.0136H19V27.3266H22.7771V37.7315C23.549 37.8597 24.3304 37.9229 25.1129 37.9203C25.8919 37.9175 26.6695 37.8544 27.4388 37.7315V27.3266H30.858Z" fill="#E5E5E3"/>
<circle cx="25" cy="25.9204" r="24.5" stroke="#999999"/>
</svg>
