<svg width="129" height="42" viewBox="0 0 129 42" fill="none" xmlns="http://www.w3.org/2000/svg">
<path d="M120.68 1.8252H8.32053C4.27752 1.8252 1 5.41175 1 9.83598V32.9094C1 37.3337 4.27752 40.9202 8.32053 40.9202H120.68C124.723 40.9202 128 37.3337 128 32.9094V9.83598C128 5.41175 124.723 1.8252 120.68 1.8252Z" stroke="#D1AE55" stroke-width="2" stroke-miterlimit="10"/>
<path d="M22.9512 20.6134C23.0467 20.7181 23.1004 20.86 23.1004 21.0079C23.1004 21.1558 23.0467 21.2977 22.9512 21.4024L10.1292 35.3727C9.95825 35.2827 9.81424 35.1414 9.71405 34.9651C9.61387 34.7888 9.56166 34.585 9.56353 34.3774V7.90544C9.56492 7.66015 9.6393 7.42203 9.77539 7.22713C9.91147 7.03222 10.1019 6.89113 10.3178 6.8252L22.9512 20.6134Z" fill="#D1AE55"/>
<path d="M26.6998 24.7761C26.7545 24.835 26.7961 24.907 26.8212 24.9865C26.8464 25.0659 26.8544 25.1506 26.8448 25.234C26.8351 25.3174 26.808 25.3972 26.7655 25.4672C26.7231 25.5373 26.6664 25.5957 26.5999 25.6378L21.6197 28.7815L14.5654 33.2723L24.193 22.7491C24.2394 22.6977 24.2947 22.6569 24.3556 22.6291C24.4166 22.6012 24.4819 22.5869 24.548 22.5869C24.614 22.5869 24.6794 22.6012 24.7403 22.6291C24.8012 22.6569 24.8565 22.6977 24.9029 22.7491L26.6998 24.7761Z" fill="#D1AE55"/>
<path d="M26.5439 17.4946L24.8469 19.3516C24.8005 19.403 24.7452 19.4438 24.6843 19.4717C24.6234 19.4995 24.558 19.5138 24.492 19.5138C24.426 19.5138 24.3606 19.4995 24.2997 19.4717C24.2387 19.4438 24.1835 19.403 24.1371 19.3516L15.1084 9.47168L21.6192 13.5863L26.4331 16.6328C26.5003 16.6739 26.5579 16.7315 26.6015 16.801C26.645 16.8705 26.6733 16.9501 26.684 17.0336C26.6948 17.117 26.6877 17.2021 26.6634 17.2821C26.6391 17.3621 26.5982 17.4348 26.5439 17.4946Z" fill="#D1AE55"/>
<path d="M32.0901 22.1183L28.9844 24.0724C28.8898 24.1318 28.78 24.1557 28.6718 24.1403C28.5637 24.125 28.4631 24.0713 28.3854 23.9875L26.0118 21.4022C25.9214 21.2946 25.8712 21.1538 25.8712 21.0077C25.8712 20.8616 25.9214 20.7208 26.0118 20.6132L28.2302 18.1857C28.3078 18.1019 28.4084 18.0482 28.5166 18.0329C28.6247 18.0175 28.7345 18.0414 28.8291 18.1007L32.079 20.1398C32.2414 20.2361 32.3773 20.3784 32.4723 20.5518C32.5673 20.7252 32.6181 20.9233 32.6192 21.1255C32.6203 21.3277 32.5718 21.5264 32.4787 21.7011C32.3857 21.8757 32.2514 22.0198 32.0901 22.1183Z" fill="#D1AE55"/>
<path d="M43.3125 20.8038H48.6903C48.721 20.9264 48.7465 21.0745 48.7669 21.2482C48.7873 21.4218 48.7976 21.5955 48.7976 21.7691C48.7976 22.4739 48.6903 23.1378 48.4758 23.7609C48.2613 24.384 47.9242 24.9406 47.4646 25.4309C46.9743 25.9519 46.387 26.3553 45.7026 26.6413C45.0183 26.9273 44.2369 27.0703 43.3584 27.0703C42.5617 27.0703 41.811 26.9273 41.1062 26.6413C40.4014 26.3553 39.7885 25.957 39.2676 25.4463C38.7467 24.9355 38.333 24.3329 38.0265 23.6383C37.7201 22.9335 37.5669 22.1675 37.5669 21.3401C37.5669 20.5127 37.7201 19.7518 38.0265 19.0572C38.333 18.3524 38.7467 17.7446 39.2676 17.2339C39.7885 16.7232 40.4014 16.3249 41.1062 16.0389C41.811 15.7529 42.5617 15.6099 43.3584 15.6099C44.2471 15.6099 45.0387 15.7631 45.7333 16.0695C46.438 16.3759 47.0407 16.7998 47.5412 17.3412L46.1163 18.7354C45.7588 18.3575 45.3604 18.0715 44.9212 17.8774C44.482 17.6731 43.956 17.571 43.3431 17.571C42.8426 17.571 42.3676 17.6629 41.9182 17.8468C41.4688 18.0204 41.0755 18.2707 40.7384 18.5975C40.4014 18.9244 40.1307 19.3228 39.9264 19.7926C39.7323 20.2523 39.6353 20.7681 39.6353 21.3401C39.6353 21.9121 39.7323 22.433 39.9264 22.9029C40.1307 23.3625 40.4014 23.7558 40.7384 24.0826C41.0857 24.4095 41.4841 24.6649 41.9335 24.8487C42.383 25.0224 42.863 25.1092 43.3737 25.1092C43.956 25.1092 44.4463 25.0275 44.8446 24.864C45.2532 24.6904 45.6005 24.4708 45.8865 24.2052C46.0908 24.0214 46.2644 23.7915 46.4074 23.5157C46.5606 23.2297 46.6781 22.9131 46.7598 22.5658H43.3125V20.8038ZM53.7416 19.0725C54.3238 19.0725 54.855 19.1747 55.3351 19.3789C55.8253 19.573 56.2441 19.8488 56.5914 20.2063C56.9489 20.5536 57.2247 20.9724 57.4188 21.4627C57.6231 21.953 57.7252 22.4892 57.7252 23.0714C57.7252 23.6536 57.6231 24.1899 57.4188 24.6802C57.2247 25.1705 56.9489 25.5944 56.5914 25.9519C56.2441 26.2992 55.8253 26.5749 55.3351 26.7792C54.855 26.9733 54.3238 27.0703 53.7416 27.0703C53.1594 27.0703 52.6231 26.9733 52.1329 26.7792C51.6528 26.5749 51.234 26.2992 50.8765 25.9519C50.5292 25.5944 50.2534 25.1705 50.0491 24.6802C49.8551 24.1899 49.758 23.6536 49.758 23.0714C49.758 22.4892 49.8551 21.953 50.0491 21.4627C50.2534 20.9724 50.5292 20.5536 50.8765 20.2063C51.234 19.8488 51.6528 19.573 52.1329 19.3789C52.6231 19.1747 53.1594 19.0725 53.7416 19.0725ZM53.7416 25.2164C53.997 25.2164 54.2421 25.1705 54.4771 25.0785C54.7222 24.9764 54.9367 24.8334 55.1206 24.6495C55.3044 24.4657 55.4474 24.241 55.5496 23.9754C55.6619 23.7098 55.7181 23.4085 55.7181 23.0714C55.7181 22.7344 55.6619 22.433 55.5496 22.1675C55.4474 21.9019 55.3044 21.6772 55.1206 21.4933C54.9367 21.3095 54.7222 21.1716 54.4771 21.0796C54.2421 20.9775 53.997 20.9264 53.7416 20.9264C53.476 20.9264 53.2258 20.9775 52.9909 21.0796C52.7559 21.1716 52.5465 21.3095 52.3627 21.4933C52.1788 21.6772 52.0307 21.9019 51.9184 22.1675C51.8162 22.433 51.7651 22.7344 51.7651 23.0714C51.7651 23.4085 51.8162 23.7098 51.9184 23.9754C52.0307 24.241 52.1788 24.4657 52.3627 24.6495C52.5465 24.8334 52.7559 24.9764 52.9909 25.0785C53.2258 25.1705 53.476 25.2164 53.7416 25.2164ZM62.5694 19.0725C63.1517 19.0725 63.6828 19.1747 64.1629 19.3789C64.6532 19.573 65.072 19.8488 65.4192 20.2063C65.7767 20.5536 66.0525 20.9724 66.2466 21.4627C66.4509 21.953 66.553 22.4892 66.553 23.0714C66.553 23.6536 66.4509 24.1899 66.2466 24.6802C66.0525 25.1705 65.7767 25.5944 65.4192 25.9519C65.072 26.2992 64.6532 26.5749 64.1629 26.7792C63.6828 26.9733 63.1517 27.0703 62.5694 27.0703C61.9872 27.0703 61.451 26.9733 60.9607 26.7792C60.4806 26.5749 60.0618 26.2992 59.7043 25.9519C59.357 25.5944 59.0812 25.1705 58.877 24.6802C58.6829 24.1899 58.5858 23.6536 58.5858 23.0714C58.5858 22.4892 58.6829 21.953 58.877 21.4627C59.0812 20.9724 59.357 20.5536 59.7043 20.2063C60.0618 19.8488 60.4806 19.573 60.9607 19.3789C61.451 19.1747 61.9872 19.0725 62.5694 19.0725ZM62.5694 25.2164C62.8248 25.2164 63.0699 25.1705 63.3049 25.0785C63.55 24.9764 63.7645 24.8334 63.9484 24.6495C64.1322 24.4657 64.2752 24.241 64.3774 23.9754C64.4897 23.7098 64.5459 23.4085 64.5459 23.0714C64.5459 22.7344 64.4897 22.433 64.3774 22.1675C64.2752 21.9019 64.1322 21.6772 63.9484 21.4933C63.7645 21.3095 63.55 21.1716 63.3049 21.0796C63.0699 20.9775 62.8248 20.9264 62.5694 20.9264C62.3039 20.9264 62.0536 20.9775 61.8187 21.0796C61.5838 21.1716 61.3744 21.3095 61.1905 21.4933C61.0066 21.6772 60.8585 21.9019 60.7462 22.1675C60.644 22.433 60.593 22.7344 60.593 23.0714C60.593 23.4085 60.644 23.7098 60.7462 23.9754C60.8585 24.241 61.0066 24.4657 61.1905 24.6495C61.3744 24.8334 61.5838 24.9764 61.8187 25.0785C62.0536 25.1705 62.3039 25.2164 62.5694 25.2164ZM71.3053 30.3798C70.7742 30.3798 70.2992 30.3083 69.8804 30.1653C69.4719 30.0325 69.1144 29.8537 68.8079 29.629C68.5015 29.4145 68.2461 29.1745 68.0418 28.9089C67.8376 28.6433 67.6895 28.3778 67.5975 28.1122L69.5127 27.3461C69.6557 27.7445 69.8906 28.0509 70.2175 28.2654C70.5444 28.4901 70.907 28.6025 71.3053 28.6025C71.9386 28.6025 72.4391 28.4033 72.8068 28.005C73.1746 27.6168 73.3584 27.0703 73.3584 26.3656V25.8446H73.2358C73.0009 26.1715 72.6894 26.4319 72.3012 26.626C71.9233 26.8099 71.4739 26.9018 70.9529 26.9018C70.5035 26.9018 70.0643 26.8099 69.6353 26.626C69.2165 26.4422 68.8437 26.1817 68.5168 25.8446C68.19 25.4973 67.9244 25.0837 67.7201 24.6036C67.5158 24.1235 67.4137 23.5873 67.4137 22.9948C67.4137 22.4024 67.5158 21.8661 67.7201 21.3861C67.9244 20.8958 68.19 20.4821 68.5168 20.145C68.8437 19.7977 69.2165 19.5322 69.6353 19.3483C70.0643 19.1644 70.5035 19.0725 70.9529 19.0725C71.4739 19.0725 71.9233 19.1695 72.3012 19.3636C72.6894 19.5475 73.0009 19.8028 73.2358 20.1297H73.3584V19.3177H75.2736V26.2889C75.2736 26.9222 75.1766 27.4891 74.9825 27.9896C74.7884 28.5003 74.5177 28.9293 74.1705 29.2766C73.8232 29.6341 73.4044 29.9048 72.9141 30.0887C72.434 30.2827 71.8978 30.3798 71.3053 30.3798ZM71.3819 25.0939C71.6271 25.0939 71.8671 25.0479 72.102 24.956C72.3472 24.864 72.5617 24.7313 72.7456 24.5576C72.9294 24.3738 73.0775 24.1541 73.1899 23.8988C73.3022 23.6332 73.3584 23.3319 73.3584 22.9948C73.3584 22.6577 73.3022 22.3564 73.1899 22.0908C73.0775 21.8253 72.9294 21.6057 72.7456 21.432C72.5617 21.2482 72.3472 21.1103 72.102 21.0183C71.8671 20.9264 71.6271 20.8805 71.3819 20.8805C71.1368 20.8805 70.8968 20.9264 70.6618 21.0183C70.4269 21.1103 70.2175 21.2482 70.0336 21.432C69.8498 21.6159 69.7017 21.8406 69.5893 22.1062C69.477 22.3615 69.4208 22.6577 69.4208 22.9948C69.4208 23.3319 69.477 23.6332 69.5893 23.8988C69.7017 24.1541 69.8498 24.3738 70.0336 24.5576C70.2175 24.7313 70.4269 24.864 70.6618 24.956C70.8968 25.0479 71.1368 25.0939 71.3819 25.0939ZM76.9847 26.8252V15.855H78.9918V26.8252H76.9847ZM87.7447 25.0173C87.3974 25.6301 86.9276 26.1255 86.3351 26.5034C85.7529 26.8814 85.0379 27.0703 84.1901 27.0703C83.6181 27.0703 83.087 26.9733 82.5967 26.7792C82.1166 26.5749 81.6978 26.294 81.3403 25.9365C80.9828 25.579 80.7019 25.1603 80.4976 24.6802C80.3036 24.1899 80.2065 23.6536 80.2065 23.0714C80.2065 22.5301 80.3036 22.0193 80.4976 21.5393C80.6917 21.049 80.9624 20.6251 81.3097 20.2676C81.657 19.8999 82.0655 19.6088 82.5354 19.3943C83.0155 19.1798 83.5415 19.0725 84.1135 19.0725C84.7162 19.0725 85.2524 19.1747 85.7223 19.3789C86.1921 19.573 86.5854 19.8488 86.902 20.2063C87.2187 20.5536 87.4587 20.9673 87.6221 21.4473C87.7856 21.9274 87.8673 22.4484 87.8673 23.0101C87.8673 23.0816 87.8673 23.1429 87.8673 23.194C87.8571 23.2553 87.852 23.3115 87.852 23.3625C87.8417 23.4136 87.8366 23.4698 87.8366 23.5311H82.183C82.2239 23.8375 82.3056 24.1031 82.4281 24.3278C82.5609 24.5423 82.7193 24.7261 82.9031 24.8794C83.0972 25.0224 83.3066 25.1296 83.5313 25.2011C83.756 25.2624 83.9858 25.293 84.2208 25.293C84.6804 25.293 85.0583 25.1909 85.3546 24.9866C85.661 24.7721 85.901 24.5065 86.0747 24.1899L87.7447 25.0173ZM85.9215 22.1062C85.9112 21.9734 85.8653 21.8253 85.7836 21.6618C85.7121 21.4984 85.5997 21.3452 85.4465 21.2022C85.3035 21.0592 85.1196 20.9417 84.8949 20.8498C84.6804 20.7579 84.4199 20.7119 84.1135 20.7119C83.6845 20.7119 83.3066 20.8345 82.9797 21.0796C82.6529 21.3248 82.423 21.667 82.2903 22.1062H85.9215ZM92.7608 26.8252V15.855H96.6218C97.1428 15.855 97.628 15.9418 98.0774 16.1155C98.537 16.2789 98.9354 16.5138 99.2725 16.8203C99.6095 17.1267 99.8751 17.4944 100.069 17.9234C100.263 18.3422 100.36 18.8069 100.36 19.3177C100.36 19.8386 100.263 20.3136 100.069 20.7426C99.8751 21.1613 99.6095 21.524 99.2725 21.8304C98.9354 22.1368 98.537 22.3769 98.0774 22.5505C97.628 22.7139 97.1428 22.7956 96.6218 22.7956H94.8292V26.8252H92.7608ZM96.6525 20.8345C97.1938 20.8345 97.6024 20.6813 97.8782 20.3748C98.154 20.0684 98.2919 19.716 98.2919 19.3177C98.2919 19.1236 98.2561 18.9346 98.1846 18.7508C98.1234 18.5669 98.0212 18.4086 97.8782 18.2758C97.7454 18.1328 97.5769 18.0204 97.3726 17.9387C97.1683 17.857 96.9283 17.8161 96.6525 17.8161H94.8292V20.8345H96.6525ZM101.658 26.8252V15.855H103.665V26.8252H101.658ZM109.936 26.0285H109.813C109.578 26.3145 109.292 26.5596 108.955 26.7639C108.628 26.9682 108.204 27.0703 107.683 27.0703C107.295 27.0703 106.928 27.0039 106.58 26.8712C106.243 26.7486 105.947 26.5749 105.692 26.3502C105.436 26.1255 105.237 25.8548 105.094 25.5382C104.951 25.2215 104.88 24.8743 104.88 24.4963C104.88 24.1082 104.956 23.7609 105.109 23.4545C105.263 23.1378 105.477 22.8671 105.753 22.6424C106.029 22.4177 106.35 22.2492 106.718 22.1368C107.096 22.0142 107.505 21.953 107.944 21.953C108.434 21.953 108.838 21.9938 109.154 22.0755C109.471 22.147 109.731 22.2236 109.936 22.3054V22.0755C109.936 21.6772 109.777 21.3503 109.461 21.095C109.144 20.8294 108.751 20.6966 108.281 20.6966C107.586 20.6966 106.999 20.9877 106.519 21.5699L105.063 20.574C105.86 19.573 106.948 19.0725 108.327 19.0725C109.491 19.0725 110.38 19.3483 110.993 19.8999C111.606 20.4412 111.912 21.2482 111.912 22.3207V26.8252H109.936V26.0285ZM109.936 23.7762C109.701 23.6639 109.456 23.577 109.2 23.5157C108.955 23.4442 108.684 23.4085 108.388 23.4085C107.908 23.4085 107.535 23.5157 107.27 23.7303C107.014 23.9345 106.887 24.1899 106.887 24.4963C106.887 24.8028 107.009 25.0479 107.254 25.2318C107.51 25.4156 107.801 25.5075 108.128 25.5075C108.393 25.5075 108.638 25.4616 108.863 25.3697C109.088 25.2675 109.277 25.1398 109.43 24.9866C109.593 24.8232 109.716 24.6393 109.798 24.435C109.89 24.2205 109.936 24.0009 109.936 23.7762ZM115.718 26.4575L112.562 19.3177H114.845L116.744 23.8681H116.852L118.675 19.3177H120.912L116.208 30.1346H114.048L115.718 26.4575Z" fill="#D1AE55"/>
</svg>
