<svg width="215" height="69" viewBox="0 0 215 69" fill="none" xmlns="http://www.w3.org/2000/svg">
<path d="M200.696 2.40869H14.1538C7.44145 2.40869 2 8.36322 2 15.7085V54.0159C2 61.3612 7.44145 67.3157 14.1538 67.3157H200.696C207.409 67.3157 212.85 61.3612 212.85 54.0159V15.7085C212.85 8.36322 207.409 2.40869 200.696 2.40869Z" stroke="#E5E5E3" stroke-width="3.27675" stroke-miterlimit="10"/>
<path d="M38.4436 33.6032C38.6022 33.777 38.6912 34.0125 38.6912 34.2581C38.6912 34.5037 38.6022 34.7392 38.4436 34.913L17.1561 58.107C16.8722 57.9577 16.6331 57.723 16.4668 57.4303C16.3005 57.1377 16.2138 56.7992 16.2169 56.4546V12.5049C16.2192 12.0977 16.3427 11.7023 16.5686 11.3787C16.7946 11.0551 17.1107 10.8209 17.4691 10.7114L38.4436 33.6032Z" fill="#E5E5E3"/>
<path d="M44.6668 40.5139C44.7577 40.6118 44.8267 40.7313 44.8685 40.8632C44.9102 40.9951 44.9236 41.1357 44.9076 41.2742C44.8916 41.4126 44.8465 41.5451 44.776 41.6614C44.7055 41.7777 44.6115 41.8747 44.5011 41.9447L36.2328 47.1638L24.521 54.6197L40.5051 37.1487C40.5821 37.0634 40.6739 36.9956 40.775 36.9494C40.8762 36.9032 40.9847 36.8794 41.0944 36.8794C41.204 36.8794 41.3125 36.9032 41.4137 36.9494C41.5148 36.9956 41.6066 37.0634 41.6836 37.1487L44.6668 40.5139Z" fill="#E5E5E3"/>
<path d="M44.4086 28.4239L41.5911 31.5071C41.514 31.5924 41.4223 31.6601 41.3211 31.7063C41.22 31.7525 41.1115 31.7763 41.0019 31.7763C40.8922 31.7763 40.7837 31.7525 40.6825 31.7063C40.5814 31.6601 40.4896 31.5924 40.4126 31.5071L25.4229 15.104L36.2324 21.9353L44.2245 26.9932C44.3361 27.0614 44.4318 27.157 44.5041 27.2724C44.5764 27.3878 44.6233 27.52 44.6411 27.6586C44.6589 27.7971 44.6472 27.9383 44.6069 28.0711C44.5665 28.2039 44.4987 28.3246 44.4086 28.4239Z" fill="#E5E5E3"/>
<path d="M53.6158 36.1013L48.4596 39.3457C48.3026 39.4443 48.1203 39.4839 47.9407 39.4584C47.7611 39.4329 47.5941 39.3438 47.4652 39.2046L43.5245 34.9124C43.3743 34.7339 43.291 34.5001 43.291 34.2575C43.291 34.0149 43.3743 33.7811 43.5245 33.6026L47.2074 29.5724C47.3363 29.4332 47.5033 29.344 47.6829 29.3186C47.8625 29.2931 48.0447 29.3327 48.2018 29.4313L53.5974 32.8167C53.8671 32.9765 54.0926 33.2128 54.2504 33.5006C54.4082 33.7885 54.4924 34.1174 54.4942 34.4531C54.4961 34.7887 54.4156 35.1187 54.2611 35.4087C54.1065 35.6986 53.8837 35.9379 53.6158 36.1013Z" fill="#E5E5E3"/>
<path d="M72.8508 29.9731C72.7315 29.5584 72.5639 29.1919 72.348 28.8737C72.132 28.5498 71.8678 28.2771 71.5553 28.0555C71.2485 27.8283 70.8963 27.655 70.4985 27.5356C70.1065 27.4163 69.6718 27.3567 69.1945 27.3567C68.3025 27.3567 67.5184 27.5783 66.8423 28.0214C66.1718 28.4646 65.6491 29.1095 65.2741 29.9561C64.8991 30.797 64.7116 31.8254 64.7116 33.0413C64.7116 34.2572 64.8963 35.2913 65.2656 36.1436C65.6349 36.9959 66.1576 37.6464 66.8338 38.0953C67.5099 38.5385 68.3082 38.7601 69.2286 38.7601C70.0639 38.7601 70.7769 38.6123 71.3678 38.3169C71.9644 38.0158 72.419 37.5925 72.7315 37.047C73.0497 36.5016 73.2088 35.8567 73.2088 35.1123L73.9588 35.2231H69.4588V32.4447H76.7627V34.6436C76.7627 36.1777 76.4389 37.4959 75.7911 38.5981C75.1434 39.6947 74.2514 40.5413 73.115 41.1379C71.9786 41.7288 70.6775 42.0243 69.2116 42.0243C67.5752 42.0243 66.1377 41.6635 64.8991 40.9419C63.6605 40.2146 62.6945 39.1834 62.0014 37.8481C61.3139 36.5072 60.9701 34.9163 60.9701 33.0754C60.9701 31.6606 61.1747 30.3993 61.5838 29.2913C61.9985 28.1777 62.5781 27.2345 63.3224 26.4618C64.0667 25.6891 64.9332 25.101 65.9218 24.6976C66.9105 24.2942 67.9815 24.0925 69.1349 24.0925C70.1235 24.0925 71.044 24.2373 71.8963 24.5271C72.7485 24.8112 73.5042 25.2146 74.1633 25.7373C74.8281 26.2601 75.3707 26.8822 75.7911 27.6038C76.2116 28.3197 76.4815 29.1095 76.6008 29.9731H72.8508ZM85.3813 42.0413C84.0575 42.0413 82.9126 41.7601 81.9467 41.1976C80.9865 40.6294 80.245 39.8396 79.7222 38.8283C79.1995 37.8112 78.9382 36.6322 78.9382 35.2913C78.9382 33.9391 79.1995 32.7572 79.7222 31.7459C80.245 30.7288 80.9865 29.9391 81.9467 29.3766C82.9126 28.8084 84.0575 28.5243 85.3813 28.5243C86.7052 28.5243 87.8472 28.8084 88.8075 29.3766C89.7734 29.9391 90.5177 30.7288 91.0404 31.7459C91.5632 32.7572 91.8245 33.9391 91.8245 35.2913C91.8245 36.6322 91.5632 37.8112 91.0404 38.8283C90.5177 39.8396 89.7734 40.6294 88.8075 41.1976C87.8472 41.7601 86.7052 42.0413 85.3813 42.0413ZM85.3984 39.2288C86.0007 39.2288 86.5035 39.0584 86.9069 38.7175C87.3103 38.3709 87.6143 37.8993 87.8188 37.3027C88.0291 36.7061 88.1342 36.0271 88.1342 35.2658C88.1342 34.5044 88.0291 33.8254 87.8188 33.2288C87.6143 32.6322 87.3103 32.1606 86.9069 31.8141C86.5035 31.4675 86.0007 31.2942 85.3984 31.2942C84.7904 31.2942 84.2791 31.4675 83.8643 31.8141C83.4552 32.1606 83.1455 32.6322 82.9353 33.2288C82.7308 33.8254 82.6285 34.5044 82.6285 35.2658C82.6285 36.0271 82.7308 36.7061 82.9353 37.3027C83.1455 37.8993 83.4552 38.3709 83.8643 38.7175C84.2791 39.0584 84.7904 39.2288 85.3984 39.2288ZM100.1 42.0413C98.7762 42.0413 97.6313 41.7601 96.6654 41.1976C95.7052 40.6294 94.9637 39.8396 94.441 38.8283C93.9183 37.8112 93.6569 36.6322 93.6569 35.2913C93.6569 33.9391 93.9183 32.7572 94.441 31.7459C94.9637 30.7288 95.7052 29.9391 96.6654 29.3766C97.6313 28.8084 98.7762 28.5243 100.1 28.5243C101.424 28.5243 102.566 28.8084 103.526 29.3766C104.492 29.9391 105.236 30.7288 105.759 31.7459C106.282 32.7572 106.543 33.9391 106.543 35.2913C106.543 36.6322 106.282 37.8112 105.759 38.8283C105.236 39.8396 104.492 40.6294 103.526 41.1976C102.566 41.7601 101.424 42.0413 100.1 42.0413ZM100.117 39.2288C100.719 39.2288 101.222 39.0584 101.626 38.7175C102.029 38.3709 102.333 37.8993 102.538 37.3027C102.748 36.7061 102.853 36.0271 102.853 35.2658C102.853 34.5044 102.748 33.8254 102.538 33.2288C102.333 32.6322 102.029 32.1606 101.626 31.8141C101.222 31.4675 100.719 31.2942 100.117 31.2942C99.5092 31.2942 98.9978 31.4675 98.583 31.8141C98.174 32.1606 97.8643 32.6322 97.6541 33.2288C97.4495 33.8254 97.3472 34.5044 97.3472 35.2658C97.3472 36.0271 97.4495 36.7061 97.6541 37.3027C97.8643 37.8993 98.174 38.3709 98.583 38.7175C98.9978 39.0584 99.5092 39.2288 100.117 39.2288ZM114.802 46.9675C113.626 46.9675 112.617 46.8055 111.776 46.4817C110.941 46.1635 110.276 45.7288 109.782 45.1777C109.288 44.6266 108.967 44.0072 108.819 43.3197L112.177 42.868C112.279 43.1294 112.441 43.3737 112.663 43.601C112.884 43.8283 113.177 44.0101 113.54 44.1464C113.91 44.2885 114.359 44.3595 114.887 44.3595C115.677 44.3595 116.327 44.1663 116.839 43.78C117.356 43.3993 117.614 42.7601 117.614 41.8623V39.4675H117.461C117.302 39.8311 117.063 40.1748 116.745 40.4987C116.427 40.8226 116.018 41.0868 115.518 41.2913C115.018 41.4959 114.421 41.5981 113.728 41.5981C112.745 41.5981 111.85 41.3709 111.043 40.9163C110.242 40.4561 109.603 39.7544 109.126 38.8112C108.654 37.8623 108.418 36.6635 108.418 35.2146C108.418 33.7317 108.66 32.493 109.143 31.4987C109.626 30.5044 110.268 29.7601 111.069 29.2658C111.876 28.7714 112.759 28.5243 113.719 28.5243C114.452 28.5243 115.066 28.6493 115.56 28.8993C116.055 29.1436 116.452 29.4504 116.753 29.8197C117.06 30.1834 117.296 30.5413 117.461 30.8936H117.597V28.6947H121.202V41.9135C121.202 43.0271 120.93 43.9589 120.384 44.7089C119.839 45.4589 119.083 46.0214 118.117 46.3964C117.157 46.7771 116.052 46.9675 114.802 46.9675ZM114.878 38.8709C115.464 38.8709 115.958 38.726 116.361 38.4362C116.771 38.1408 117.083 37.7203 117.299 37.1748C117.521 36.6237 117.631 35.9646 117.631 35.1976C117.631 34.4305 117.523 33.7658 117.307 33.2033C117.092 32.6351 116.779 32.1947 116.37 31.8822C115.961 31.5697 115.464 31.4135 114.878 31.4135C114.282 31.4135 113.779 31.5754 113.37 31.8993C112.961 32.2175 112.651 32.6606 112.441 33.2288C112.231 33.797 112.126 34.4533 112.126 35.1976C112.126 35.9533 112.231 36.6067 112.441 37.1578C112.657 37.7033 112.967 38.1266 113.37 38.4277C113.779 38.7231 114.282 38.8709 114.878 38.8709ZM127.722 24.3311V41.7856H124.092V24.3311H127.722ZM136.597 42.0413C135.25 42.0413 134.091 41.7686 133.119 41.2231C132.153 40.672 131.409 39.8936 130.886 38.8879C130.364 37.8766 130.102 36.6805 130.102 35.2998C130.102 33.9533 130.364 32.7714 130.886 31.7544C131.409 30.7373 132.145 29.9447 133.094 29.3766C134.048 28.8084 135.168 28.5243 136.452 28.5243C137.315 28.5243 138.119 28.6635 138.864 28.9419C139.614 29.2146 140.267 29.6266 140.824 30.1777C141.386 30.7288 141.824 31.422 142.136 32.2572C142.449 33.0868 142.605 34.0584 142.605 35.172V36.1692H131.551V33.9192H139.187C139.187 33.3964 139.074 32.9334 138.847 32.53C138.619 32.1266 138.304 31.8112 137.901 31.5839C137.503 31.351 137.04 31.2345 136.511 31.2345C135.96 31.2345 135.472 31.3623 135.045 31.618C134.625 31.868 134.295 32.2061 134.057 32.6322C133.818 33.0527 133.696 33.5214 133.69 34.0385V36.1777C133.69 36.8254 133.81 37.3851 134.048 37.8567C134.293 38.3283 134.636 38.6919 135.079 38.9476C135.523 39.2033 136.048 39.3311 136.656 39.3311C137.06 39.3311 137.429 39.2743 137.764 39.1606C138.099 39.047 138.386 38.8766 138.625 38.6493C138.864 38.422 139.045 38.1436 139.17 37.8141L142.528 38.0356C142.358 38.8425 142.008 39.547 141.48 40.1493C140.957 40.7459 140.281 41.2118 139.452 41.547C138.628 41.8766 137.676 42.0413 136.597 42.0413ZM150.597 41.7856V24.3311H157.484C158.807 24.3311 159.935 24.5839 160.867 25.0896C161.799 25.5896 162.509 26.2856 162.998 27.1777C163.492 28.0641 163.739 29.0868 163.739 30.2459C163.739 31.405 163.489 32.4277 162.989 33.3141C162.489 34.2004 161.765 34.8908 160.816 35.3851C159.873 35.8794 158.731 36.1266 157.39 36.1266H153.001V33.1692H156.793C157.503 33.1692 158.089 33.047 158.549 32.8027C159.015 32.5527 159.361 32.2089 159.589 31.7714C159.822 31.3283 159.938 30.8197 159.938 30.2459C159.938 29.6663 159.822 29.1606 159.589 28.7288C159.361 28.2913 159.015 27.9533 158.549 27.7146C158.083 27.4703 157.492 27.3481 156.776 27.3481H154.288V41.7856H150.597ZM169.699 24.3311V41.7856H166.068V24.3311H169.699ZM176.34 42.0328C175.505 42.0328 174.761 41.8879 174.107 41.5981C173.454 41.3027 172.937 40.868 172.556 40.2942C172.181 39.7146 171.994 38.993 171.994 38.1294C171.994 37.4021 172.127 36.7913 172.394 36.297C172.661 35.8027 173.025 35.405 173.485 35.1038C173.945 34.8027 174.468 34.5754 175.053 34.422C175.644 34.2686 176.263 34.1606 176.911 34.0981C177.673 34.0186 178.286 33.9447 178.752 33.8766C179.218 33.8027 179.556 33.6947 179.766 33.5527C179.977 33.4106 180.082 33.2004 180.082 32.922V32.8709C180.082 32.3311 179.911 31.9135 179.57 31.618C179.235 31.3226 178.758 31.1748 178.138 31.1748C177.485 31.1748 176.965 31.3197 176.579 31.6095C176.192 31.8936 175.937 32.2516 175.812 32.6834L172.454 32.4106C172.624 31.6152 172.959 30.9277 173.459 30.3481C173.959 29.7629 174.604 29.3141 175.394 29.0016C176.19 28.6834 177.11 28.5243 178.155 28.5243C178.883 28.5243 179.579 28.6095 180.244 28.78C180.914 28.9504 181.508 29.2146 182.025 29.5726C182.548 29.9305 182.959 30.3908 183.261 30.9533C183.562 31.5101 183.712 32.1777 183.712 32.9561V41.7856H180.269V39.9703H180.167C179.957 40.3794 179.675 40.7402 179.323 41.0527C178.971 41.3595 178.548 41.601 178.053 41.7771C177.559 41.9476 176.988 42.0328 176.34 42.0328ZM177.38 39.5271C177.914 39.5271 178.386 39.422 178.795 39.2118C179.204 38.9959 179.525 38.7061 179.758 38.3425C179.991 37.9788 180.107 37.5669 180.107 37.1067V35.7175C179.994 35.7913 179.837 35.8595 179.638 35.922C179.445 35.9788 179.227 36.0328 178.982 36.0839C178.738 36.1294 178.494 36.172 178.249 36.2118C178.005 36.2459 177.783 36.2771 177.584 36.3055C177.158 36.368 176.786 36.4675 176.468 36.6038C176.15 36.7402 175.903 36.9248 175.727 37.1578C175.55 37.3851 175.462 37.6692 175.462 38.0101C175.462 38.5044 175.641 38.8822 175.999 39.1436C176.363 39.3993 176.823 39.5271 177.38 39.5271ZM188.302 46.6947C187.842 46.6947 187.41 46.6578 187.006 46.5839C186.609 46.5158 186.279 46.4277 186.018 46.3197L186.836 43.6095C187.262 43.7402 187.646 43.8112 187.986 43.8226C188.333 43.8339 188.631 43.7544 188.881 43.5839C189.137 43.4135 189.344 43.1237 189.503 42.7146L189.717 42.1606L185.021 28.6947H188.839L191.549 38.3084H191.685L194.421 28.6947H198.265L193.177 43.2004C192.932 43.905 192.6 44.5186 192.18 45.0413C191.765 45.5697 191.239 45.976 190.603 46.2601C189.967 46.5498 189.2 46.6947 188.302 46.6947Z" fill="#E5E5E3"/>
</svg>
