<svg width="50" height="51" viewBox="0 0 50 51" fill="none" xmlns="http://www.w3.org/2000/svg">
<path d="M34.1417 15.1024C33.0311 14.3169 31.7003 13.9039 30.3403 13.9225H19.6184C18.3118 13.8894 17.0264 14.2565 15.9342 14.9745C14.842 15.6925 13.995 16.7272 13.5069 17.94C13.2821 18.5476 13.1125 19.1742 13 19.8122V20.0658V31.7673C13.0224 31.8856 13.0416 32.0049 13.0608 32.1239C13.1001 32.3679 13.1392 32.6105 13.2047 32.84C13.4927 34.0862 14.1407 35.2202 15.0678 36.1009C15.995 36.9817 17.1605 37.5703 18.4195 37.7936C18.593 37.837 18.7772 37.8643 18.9602 37.8915C19.024 37.9009 19.0876 37.9103 19.1505 37.9204H30.8472C30.9779 37.8957 31.1099 37.8761 31.2417 37.8565C31.4737 37.822 31.7054 37.7875 31.9291 37.7254C33.1704 37.4357 34.2995 36.7878 35.1762 35.8622C36.0529 34.9366 36.6388 33.7738 36.8612 32.5182C36.9553 32.0693 37.0011 31.6116 36.9977 31.153V20.6801C37.027 19.5854 36.7808 18.5009 36.2818 17.5263C35.7828 16.5517 35.0469 15.7181 34.1417 15.1024ZM34.8825 31.1823C34.9202 32.1488 34.6404 33.1011 34.0859 33.8935C33.5315 34.686 32.7328 35.2749 31.8121 35.5703C31.2986 35.7344 30.7624 35.8166 30.2233 35.8141H19.7646C18.7987 35.8455 17.8485 35.5646 17.0549 35.0131C16.2612 34.4615 15.6665 33.6687 15.3588 32.7522C15.1855 32.234 15.103 31.6896 15.1151 31.1432V20.7094C15.089 19.723 15.3831 18.7548 15.9534 17.9497C16.3772 17.345 16.9448 16.8554 17.6051 16.5251C18.2654 16.1949 18.9975 16.0343 19.7353 16.058H30.2721C31.235 16.0246 32.1824 16.3066 32.9705 16.8609C33.7587 17.4153 34.3444 18.2119 34.6388 19.1297C34.7962 19.638 34.8751 20.1674 34.8728 20.6996C34.8874 23.3179 34.8856 25.9417 34.8837 28.5628C34.8831 29.4363 34.8825 30.3096 34.8825 31.1823Z" fill="#E5E5E3"/>
<path d="M34.1417 15.1024C33.0311 14.3169 31.7003 13.9039 30.3403 13.9225H19.6184C18.3118 13.8894 17.0264 14.2565 15.9342 14.9745C14.842 15.6925 13.995 16.7272 13.5069 17.94C13.2821 18.5476 13.1125 19.1742 13 19.8122V20.0658V31.7673C13.0224 31.8856 13.0416 32.0049 13.0608 32.1239C13.1001 32.3679 13.1392 32.6105 13.2047 32.84C13.4927 34.0862 14.1407 35.2202 15.0678 36.1009C15.995 36.9817 17.1605 37.5703 18.4195 37.7936C18.593 37.837 18.7772 37.8643 18.9602 37.8915C19.024 37.9009 19.0876 37.9103 19.1505 37.9204H30.8472C30.9779 37.8957 31.1099 37.8761 31.2417 37.8565C31.4737 37.822 31.7054 37.7875 31.9291 37.7254C33.1704 37.4357 34.2995 36.7878 35.1762 35.8622C36.0529 34.9366 36.6388 33.7738 36.8612 32.5182C36.9553 32.0693 37.0011 31.6116 36.9977 31.153V20.6801C37.027 19.5854 36.7808 18.5009 36.2818 17.5263C35.7828 16.5517 35.0469 15.7181 34.1417 15.1024ZM34.8825 31.1823C34.9202 32.1488 34.6404 33.1011 34.0859 33.8935C33.5315 34.686 32.7328 35.2749 31.8121 35.5703C31.2986 35.7344 30.7624 35.8166 30.2233 35.8141H19.7646C18.7987 35.8455 17.8485 35.5646 17.0549 35.0131C16.2612 34.4615 15.6665 33.6687 15.3588 32.7522C15.1855 32.234 15.103 31.6896 15.1151 31.1432V20.7094C15.089 19.723 15.3831 18.7548 15.9534 17.9497C16.3772 17.345 16.9448 16.8554 17.6051 16.5251C18.2654 16.1949 18.9975 16.0343 19.7353 16.058H30.2721C31.235 16.0246 32.1824 16.3066 32.9705 16.8609C33.7587 17.4153 34.3444 18.2119 34.6388 19.1297C34.7962 19.638 34.8751 20.1674 34.8728 20.6996C34.8874 23.3179 34.8856 25.9417 34.8837 28.5628C34.8831 29.4363 34.8825 30.3096 34.8825 31.1823Z" stroke="#E5E5E3"/>
<path d="M24.9976 19.7451C23.7711 19.7451 22.5721 20.1091 21.5524 20.791C20.5328 21.4729 19.7382 22.4421 19.2693 23.5759C18.8004 24.7097 18.6782 25.9572 18.9182 27.1605C19.1582 28.3638 19.7496 29.4688 20.6175 30.3358C21.4855 31.2027 22.591 31.7926 23.7941 32.0308C24.9973 32.269 26.2441 32.1448 27.3767 31.6739C28.5093 31.203 29.4768 30.4066 30.1568 29.3854C30.8368 28.3642 31.1987 27.1642 31.1968 25.9372C31.1891 24.2956 30.5332 22.7237 29.372 21.5638C28.2108 20.404 26.6384 19.7502 24.9976 19.7451ZM24.9976 30.0035C24.196 30.0016 23.413 29.762 22.7475 29.3151C22.0819 28.8682 21.5637 28.234 21.2583 27.4926C20.9529 26.7512 20.874 25.9358 21.0316 25.1496C21.1891 24.3633 21.5761 23.6415 22.1435 23.0751C22.711 22.5088 23.4335 22.1234 24.2198 21.9677C25.0061 21.8119 25.8209 21.8928 26.5613 22.2001C27.3016 22.5075 27.9343 23.0274 28.3795 23.6943C28.8246 24.3612 29.0622 25.1451 29.0622 25.9469C29.057 27.0246 28.6255 28.0564 27.8619 28.8166C27.0984 29.5767 26.065 30.0035 24.9878 30.0035H24.9976Z" fill="#E5E5E3"/>
<path d="M33.0204 19.5196C33.0185 19.8297 32.9248 20.1323 32.7512 20.3892C32.5776 20.6461 32.3318 20.8458 32.0449 20.9631C31.758 21.0805 31.4428 21.1102 31.139 21.0485C30.8353 20.9868 30.5565 20.8365 30.3381 20.6166C30.1196 20.3966 29.9711 20.1169 29.9113 19.8126C29.8515 19.5083 29.8832 19.1932 30.0022 18.9069C30.1213 18.6206 30.3224 18.376 30.5803 18.2039C30.8381 18.0318 31.1411 17.9399 31.4511 17.9399C31.8682 17.9425 32.2673 18.1101 32.5614 18.4061C32.8554 18.702 33.0204 19.1024 33.0204 19.5196Z" fill="#E5E5E3"/>
<path d="M33.0204 19.5196C33.0185 19.8297 32.9248 20.1323 32.7512 20.3892C32.5776 20.6461 32.3318 20.8458 32.0449 20.9631C31.758 21.0805 31.4428 21.1102 31.139 21.0485C30.8353 20.9868 30.5565 20.8365 30.3381 20.6166C30.1196 20.3966 29.9711 20.1169 29.9113 19.8126C29.8515 19.5083 29.8832 19.1932 30.0022 18.9069C30.1213 18.6206 30.3224 18.376 30.5803 18.2039C30.8381 18.0318 31.1411 17.9399 31.4511 17.9399C31.8682 17.9425 32.2673 18.1101 32.5614 18.4061C32.8554 18.702 33.0204 19.1024 33.0204 19.5196Z" stroke="#E5E5E3"/>
<circle cx="25" cy="25.9204" r="24.5" stroke="#999999"/>
</svg>
