<svg width="40" height="41" viewBox="0 0 40 41" fill="none" xmlns="http://www.w3.org/2000/svg">
<g filter="url(#filter0_i_3281_23551)">
<path d="M20 40.4888C8.9543 40.4888 0 31.5345 0 20.4888C0 9.44307 8.9543 0.48877 20 0.48877C31.0457 0.48877 40 9.44307 40 20.4888C40 31.5345 31.0457 40.4888 20 40.4888Z" fill="#222222"/>
</g>
<path d="M17.5689 27.3089C17.7589 27.3089 17.9489 27.2389 18.0989 27.0889C18.3889 26.7989 18.3889 26.3189 18.0989 26.0289L12.559 20.4889L18.0989 14.9489C18.3889 14.6589 18.3889 14.1789 18.0989 13.8889C17.8089 13.5989 17.329 13.5989 17.039 13.8889L10.9689 19.9589C10.6789 20.2489 10.6789 20.7289 10.9689 21.0189L17.039 27.0889C17.189 27.2389 17.3789 27.3089 17.5689 27.3089Z" fill="#D1AE55"/>
<path d="M11.67 21.2388H28.5C28.91 21.2388 29.25 20.8988 29.25 20.4888C29.25 20.0788 28.91 19.7388 28.5 19.7388H11.67C11.26 19.7388 10.92 20.0788 10.92 20.4888C10.92 20.8988 11.26 21.2388 11.67 21.2388Z" fill="#D1AE55"/>
<defs>
<filter id="filter0_i_3281_23551" x="0" y="0.48877" width="42" height="42" filterUnits="userSpaceOnUse" color-interpolation-filters="sRGB">
<feFlood flood-opacity="0" result="BackgroundImageFix"/>
<feBlend mode="normal" in="SourceGraphic" in2="BackgroundImageFix" result="shape"/>
<feColorMatrix in="SourceAlpha" type="matrix" values="0 0 0 0 0 0 0 0 0 0 0 0 0 0 0 0 0 0 127 0" result="hardAlpha"/>
<feOffset dx="2" dy="2"/>
<feGaussianBlur stdDeviation="2"/>
<feComposite in2="hardAlpha" operator="arithmetic" k2="-1" k3="1"/>
<feColorMatrix type="matrix" values="0 0 0 0 0.819608 0 0 0 0 0.682353 0 0 0 0 0.333333 0 0 0 0.15 0"/>
<feBlend mode="normal" in2="shape" result="effect1_innerShadow_3281_23551"/>
</filter>
</defs>
</svg>
