<svg width="50" height="51" viewBox="0 0 50 51" fill="none" xmlns="http://www.w3.org/2000/svg">
<path d="M36.9193 37.8706H32.036V37.3268C32.036 34.5401 32.036 31.7647 32.036 28.978C32.0319 28.6802 31.9938 28.3837 31.9227 28.0945C31.8581 27.4917 31.5721 26.9343 31.1199 26.5304C30.6678 26.1264 30.0817 25.9047 29.4754 25.9081C28.8414 25.842 28.2045 26.0026 27.6777 26.3614C27.1509 26.7201 26.7682 27.2539 26.5976 27.8679C26.4533 28.4153 26.3772 28.9784 26.371 29.5444C26.371 32.1499 26.371 34.744 26.371 37.3495C26.371 37.7913 26.235 37.8932 25.8158 37.8932C24.5921 37.8932 23.3571 37.8932 22.1335 37.8932H21.6689V21.9546H26.371V23.8578C26.9291 23.2976 27.5274 22.7789 28.1611 22.3058C29.3813 21.5394 30.8409 21.2487 32.2617 21.4889C33.6825 21.7292 34.9653 22.4836 35.8656 23.6086C36.631 24.7281 37.0271 26.059 36.9986 27.4148C36.9986 30.8132 36.9986 34.2116 36.9986 37.61C36.9533 37.6667 36.9306 37.746 36.9193 37.8706Z" fill="#E5E5E3"/>
<path d="M13.4751 21.9302H18.3244V37.8575H13.4751V21.9302Z" fill="#E5E5E3"/>
<path d="M13.0002 16.8545C12.9957 16.4689 13.0681 16.0862 13.2133 15.729C13.3584 15.3717 13.5734 15.047 13.8456 14.7738C14.1178 14.5006 14.4417 14.2844 14.7985 14.1379C15.1553 13.9914 15.5377 13.9175 15.9234 13.9205C16.5074 13.916 17.0796 14.0852 17.5673 14.4066C18.0549 14.728 18.436 15.1871 18.6621 15.7255C18.8883 16.2639 18.9492 16.8574 18.8372 17.4306C18.7251 18.0037 18.4453 18.5306 18.0331 18.9443C17.6209 19.358 17.0949 19.6399 16.5221 19.7541C15.9493 19.8683 15.3555 19.8097 14.8161 19.5857C14.2767 19.3618 13.8161 18.9825 13.4927 18.4962C13.1694 18.0099 12.998 17.4384 13.0002 16.8545Z" fill="#E5E5E3"/>
<circle cx="25" cy="25.9204" r="24.5" stroke="#999999"/>
</svg>
