<svg width="49" height="48" viewBox="0 0 49 48" fill="none" xmlns="http://www.w3.org/2000/svg">
<g clip-path="url(#clip0_3316_23660)">
<path d="M0.64344 15.0682C0.64344 11.2607 0.64344 7.4532 0.64344 3.64569C0.64344 1.45955 2.1125 0 4.30182 0H27.1469C29.4092 0 30.8497 1.44685 30.8497 3.71549C30.8497 9.68059 30.8497 15.6446 30.8497 21.6076C30.8497 23.2829 30.8497 24.9582 30.8497 26.6304C30.8497 28.7086 29.3901 30.1935 27.3055 30.1967C20.3547 30.2094 13.4018 30.2094 6.44672 30.1967C5.68522 30.1967 4.92371 30.1967 4.16221 30.1967C3.69727 30.2071 3.23505 30.1232 2.80343 29.9501C2.37181 29.7769 1.97974 29.5181 1.6509 29.1893C1.32205 28.8604 1.06325 28.4684 0.890095 28.0367C0.716943 27.6051 0.633036 27.1429 0.64344 26.6779C0.64344 22.8112 0.64344 18.9413 0.64344 15.0682ZM20.3663 22.2803C20.3638 22.8923 20.5429 23.4912 20.8809 24.0014C21.2189 24.5116 21.7006 24.9101 22.2651 25.1465C22.8296 25.3829 23.4515 25.4465 24.0522 25.3293C24.6528 25.2122 25.2053 24.9195 25.6395 24.4883C26.0738 24.0571 26.3705 23.5068 26.492 22.907C26.6134 22.3072 26.5543 21.6848 26.322 21.1186C26.0897 20.5524 25.6946 20.0679 25.1869 19.7263C24.6791 19.3846 24.0814 19.2013 23.4695 19.1994C22.6498 19.1977 21.8629 19.521 21.2812 20.0985C20.6995 20.676 20.3705 21.4606 20.3663 22.2803ZM15.7497 12.0095C15.1377 12.0089 14.5391 12.1897 14.0297 12.529C13.5203 12.8683 13.1229 13.351 12.8877 13.9161C12.6524 14.4812 12.5899 15.1033 12.708 15.7038C12.8261 16.3044 13.1195 16.8565 13.5512 17.2904C13.9829 17.7243 14.5335 18.0206 15.1335 18.1418C15.7335 18.2629 16.3559 18.2036 16.9221 17.9713C17.4884 17.7389 17.9731 17.344 18.3151 16.8363C18.657 16.3287 18.8408 15.7311 18.8433 15.119C18.845 14.7115 18.7662 14.3077 18.6116 13.9307C18.4569 13.5538 18.2293 13.211 17.9419 12.9221C17.6545 12.6333 17.313 12.404 16.9368 12.2474C16.5606 12.0908 16.1572 12.0099 15.7497 12.0095ZM7.99828 11.0069C8.60803 11.0129 9.20597 10.8386 9.71698 10.5059C10.228 10.1732 10.6293 9.69689 10.8704 9.13682C11.1116 8.57675 11.1818 7.9579 11.0723 7.35803C10.9628 6.75815 10.6785 6.20401 10.2551 5.76522C9.83167 5.32643 9.28801 5.02257 8.69241 4.8918C8.09682 4.76103 7.47587 4.80919 6.90756 5.03024C6.33926 5.25128 5.84895 5.63535 5.49824 6.13418C5.14754 6.63302 4.95207 7.22437 4.93641 7.83395C4.925 8.2444 4.99558 8.653 5.14403 9.03583C5.29247 9.41867 5.51579 9.76804 5.80092 10.0635C6.08605 10.359 6.42725 10.5946 6.80455 10.7566C7.18186 10.9186 7.58769 11.0037 7.99828 11.0069Z" fill="#E5E5E3"/>
<path d="M18.4562 31.6562H27.2103C30.1547 31.6562 32.287 29.5367 32.287 26.6017C32.287 23.8349 32.287 21.0713 32.287 18.3045V17.8159C32.4519 17.8159 32.5852 17.7905 32.7216 17.7905C36.7936 17.7905 40.8665 17.7905 44.9406 17.7905C47.1807 17.7905 48.6275 19.2532 48.6275 21.4902C48.6275 29.1411 48.6275 36.7921 48.6275 44.4431C48.6384 44.9138 48.5535 45.3819 48.378 45.8188C48.2025 46.2557 47.94 46.6524 47.6064 46.9848C47.2729 47.3171 46.8753 47.5782 46.4377 47.7522C46.0002 47.9262 45.5318 48.0094 45.0611 47.9968H22.1241C19.903 47.9968 18.4435 46.5499 18.4403 44.3384C18.4403 40.2136 18.4403 36.0888 18.4403 31.964C18.434 31.8815 18.4467 31.7958 18.4562 31.6562ZM25.8396 36.9962C25.2295 36.9938 24.6323 37.1719 24.1232 37.5079C23.614 37.844 23.2156 38.3231 22.978 38.885C22.7404 39.447 22.6742 40.0666 22.7879 40.666C22.9015 41.2654 23.1898 41.8178 23.6166 42.2538C24.0433 42.6898 24.5894 42.9898 25.1863 43.1163C25.7831 43.2427 26.404 43.1898 26.9709 42.9643C27.5378 42.7388 28.0253 42.3507 28.3722 41.8488C28.7191 41.347 28.9098 40.7538 28.9205 40.1438C28.9285 39.7338 28.8548 39.3264 28.7036 38.9453C28.5524 38.5642 28.3269 38.217 28.0401 37.9239C27.7533 37.6309 27.411 37.398 27.0331 37.2387C26.6553 37.0794 26.2496 36.997 25.8396 36.9962ZM41.2663 36.9962C40.655 36.995 40.057 37.1749 39.5479 37.5132C39.0387 37.8516 38.6412 38.3332 38.4056 38.8972C38.1699 39.4613 38.1066 40.0825 38.2237 40.6825C38.3409 41.2825 38.6331 41.8343 39.0636 42.2684C39.4941 42.7024 40.0435 42.9992 40.6425 43.1212C41.2415 43.2432 41.8633 43.185 42.4292 42.954C42.9952 42.7229 43.4801 42.3294 43.8225 41.823C44.165 41.3167 44.3498 40.7202 44.3536 40.1089C44.3561 39.7008 44.2778 39.2962 44.1233 38.9184C43.9687 38.5407 43.741 38.1973 43.4531 37.9079C43.1653 37.6186 42.823 37.3891 42.4461 37.2326C42.0691 37.0761 41.6649 36.9958 41.2568 36.9962H41.2663ZM41.2378 22.6229C40.6281 22.6273 40.0333 22.8117 39.5281 23.1531C39.023 23.4944 38.6299 23.9774 38.3983 24.5414C38.1668 25.1054 38.107 25.7253 38.2266 26.3231C38.3462 26.921 38.6397 27.4701 39.0704 27.9017C39.5011 28.3332 40.0496 28.6279 40.6472 28.7487C41.2449 28.8695 41.8648 28.811 42.4293 28.5806C42.9937 28.3502 43.4775 27.9581 43.8199 27.4536C44.1623 26.9491 44.3479 26.3547 44.3536 25.745C44.3561 25.3349 44.2773 24.9283 44.1217 24.5487C43.966 24.1692 43.7367 23.8243 43.447 23.534C43.1572 23.2436 42.8128 23.0136 42.4336 22.8572C42.0544 22.7009 41.648 22.6212 41.2378 22.6229Z" fill="#E5E5E3"/>
<path d="M20.3663 22.2803C20.3682 21.6681 20.5518 21.0701 20.8937 20.5622C21.2356 20.0544 21.7205 19.6593 22.2871 19.4272C22.8536 19.1951 23.4763 19.1363 24.0763 19.2583C24.6763 19.3803 25.2266 19.6776 25.6575 20.1125C26.0884 20.5474 26.3806 21.1005 26.4971 21.7016C26.6135 22.3026 26.549 22.9248 26.3116 23.4891C26.0743 24.0535 25.6748 24.5348 25.1638 24.872C24.6527 25.2092 24.0531 25.3872 23.4409 25.3834C23.0351 25.3822 22.6335 25.3009 22.2592 25.1441C21.8849 24.9874 21.5451 24.7583 21.2595 24.47C20.9739 24.1818 20.748 23.8399 20.5947 23.4642C20.4414 23.0884 20.3638 22.6861 20.3663 22.2803Z" fill="#222222"/>
<path d="M15.7497 12.0095C16.3619 12.0101 16.9602 12.1922 17.469 12.5327C17.9778 12.8733 18.3742 13.3569 18.6082 13.9227C18.8422 14.4884 18.9033 15.1108 18.7837 15.7112C18.6641 16.3116 18.3692 16.8631 17.9363 17.296C17.5034 17.7289 16.9519 18.0238 16.3515 18.1434C15.7511 18.263 15.1287 18.2019 14.5629 17.9679C13.9972 17.734 13.5135 17.3375 13.173 16.8287C12.8325 16.32 12.6504 15.7217 12.6498 15.1095C12.6515 14.2878 12.9786 13.5003 13.5596 12.9193C14.1406 12.3383 14.9281 12.0112 15.7497 12.0095Z" fill="#222222"/>
<path d="M7.99828 11.0069C7.38658 11.0025 6.78991 10.8169 6.2837 10.4735C5.77749 10.13 5.38446 9.64422 5.15429 9.07746C4.92412 8.5107 4.86714 7.88842 4.99056 7.28929C5.11397 6.69015 5.41224 6.14105 5.84766 5.71139C6.28308 5.28174 6.83611 4.99081 7.43684 4.87539C8.03756 4.75997 8.65903 4.82524 9.22267 5.06294C9.78631 5.30065 10.2668 5.70011 10.6035 6.21085C10.9402 6.7216 11.1178 7.32068 11.1141 7.93238C11.1074 8.75289 10.7756 9.53727 10.1916 10.1136C9.60753 10.6899 8.8188 11.0112 7.99828 11.0069Z" fill="#222222"/>
<path d="M25.8396 36.9963C26.4528 36.9982 27.0516 37.1824 27.5599 37.5253C28.0683 37.8682 28.4632 38.3545 28.6946 38.9223C28.9261 39.4902 28.9835 40.114 28.8597 40.7146C28.7359 41.3151 28.4364 41.8654 27.9992 42.2954C27.562 42.7254 27.007 43.0158 26.4044 43.1297C25.8019 43.2435 25.1791 43.1758 24.6152 42.9351C24.0512 42.6943 23.5715 42.2914 23.237 41.7775C22.9025 41.2635 22.7283 40.6618 22.7365 40.0487C22.744 39.2326 23.075 38.453 23.6568 37.8807C24.2385 37.3084 25.0236 36.9904 25.8396 36.9963Z" fill="#222222"/>
<path d="M41.2569 36.9963C41.8682 36.9994 42.4649 37.1836 42.9716 37.5255C43.4783 37.8675 43.8723 38.3519 44.1039 38.9177C44.3356 39.4834 44.3944 40.1051 44.273 40.7042C44.1516 41.3034 43.8554 41.8531 43.4218 42.284C42.9882 42.715 42.4366 43.0078 41.8368 43.1255C41.2369 43.2432 40.6156 43.1806 40.0513 42.9455C39.487 42.7104 39.005 42.3134 38.6661 41.8046C38.3273 41.2958 38.1468 40.698 38.1474 40.0867C38.1478 39.6794 38.2287 39.2761 38.3853 38.9001C38.542 38.5241 38.7713 38.1827 39.0602 37.8956C39.3491 37.6085 39.6919 37.3812 40.0689 37.2269C40.4458 37.0725 40.8495 36.9942 41.2569 36.9963Z" fill="#222222"/>
<path d="M41.2378 22.623C41.8491 22.6205 42.4475 22.7991 42.9573 23.1364C43.4671 23.4737 43.8656 23.9545 44.1025 24.5181C44.3393 25.0817 44.4038 25.7028 44.2879 26.303C44.172 26.9032 43.8809 27.4556 43.4513 27.8906C43.0217 28.3255 42.4729 28.6233 41.8741 28.7466C41.2754 28.8698 40.6535 28.8129 40.0871 28.5831C39.5206 28.3532 39.035 27.9606 38.6915 27.455C38.348 26.9493 38.1619 26.3532 38.1569 25.7419C38.1544 25.3348 38.2321 24.9312 38.3856 24.5542C38.5391 24.1771 38.7653 23.834 39.0514 23.5443C39.3375 23.2547 39.6778 23.0243 40.053 22.8662C40.4281 22.7081 40.8307 22.6254 41.2378 22.623Z" fill="#222222"/>
</g>
<defs>
<clipPath id="clip0_3316_23660">
<rect width="48.0032" height="48" fill="white" transform="translate(0.643433)"/>
</clipPath>
</defs>
</svg>
