<svg width="101" height="100" viewBox="0 0 101 100" fill="none" xmlns="http://www.w3.org/2000/svg">
<path d="M50.7287 98.4639L31.8759 96.123C30.226 95.9149 29.4605 95.1398 29.6415 93.2982C29.9984 89.7712 29.8225 86.1662 30.4432 82.7016C31.2966 77.9364 34.1207 74.2221 37.8912 71.2569C38.7291 70.5963 39.3084 70.5599 40.2394 71.2049C46.7823 75.7412 54.5872 75.7568 61.0784 71.2049C62.1128 70.487 62.7386 70.5911 63.5817 71.2986C68.7539 75.6475 71.7021 81.0889 71.6814 87.9765C71.6814 89.792 71.547 91.618 71.7176 93.4127C71.8883 95.2074 71.159 95.9149 69.5505 96.1178C63.2921 96.8877 57.044 97.6732 50.7287 98.4639Z" fill="url(#paint0_linear_3263_23883)"/>
<path d="M34.8033 65.3746C28.2138 70.1449 24.2829 76.5851 23.2278 85.0385C19.7986 84.8617 16.4625 84.8252 13.1575 84.4715C10.2196 84.1594 7.318 83.4831 4.40086 82.9681C3.24228 82.7652 2.61644 82.2502 2.71471 80.8872C2.98884 77.2458 2.74575 73.4742 3.43883 69.8952C4.47327 64.5526 7.64903 60.4326 12.1489 57.4102C19.4676 62.3105 24.5622 62.7683 32.7757 59.2725C33.4171 61.2857 34.0791 63.2729 34.8033 65.3746Z" fill="url(#paint1_linear_3263_23883)"/>
<path d="M78.8708 84.9449C77.2777 80.9705 76.2381 77.0897 74.252 73.776C72.2658 70.4623 69.3952 67.8508 66.7626 64.7555L68.5625 59.2725C71.7952 60.973 75.4329 61.74 79.0725 61.4886C82.7654 61.199 86.2758 59.7548 89.1118 57.3582C94.8323 61.3846 98.1012 66.7219 98.5046 73.7136C98.6494 76.169 98.5046 78.6348 98.5667 81.0953C98.6018 81.2986 98.5955 81.5069 98.548 81.7076C98.5005 81.9083 98.4128 82.0971 98.2904 82.2626C98.1679 82.4281 98.0133 82.5668 97.8358 82.6702C97.6583 82.7736 97.4617 82.8396 97.2581 82.8641C91.0462 84.5391 84.6999 84.9033 78.8708 84.9449Z" fill="url(#paint2_linear_3263_23883)"/>
<path d="M41.579 41.5277C40.884 37.013 38.5536 32.9163 35.0361 30.0258L39.0342 26.6653C42.0186 28.949 45.2047 30.4264 48.8615 30.6917C52.8758 30.9618 56.8789 30.0218 60.3593 27.9918C62.7127 26.6757 63.2713 26.6393 65.0144 28.6733C65.3506 29.0635 65.6505 29.4848 66.1057 30.0727C62.8937 33.1159 60.468 36.6845 59.7542 41.4809C53.6975 38.3648 47.7339 38.3232 41.579 41.5277Z" fill="url(#paint3_linear_3263_23883)"/>
<path d="M23.8744 32.7995C30.0811 32.8879 35.0413 37.8351 34.9895 43.88C34.9378 50.2526 29.7811 55.1842 23.3261 55.0437C21.8566 55.0335 20.4039 54.729 19.0526 54.148C17.7014 53.5669 16.4789 52.7209 15.4563 51.6593C14.4338 50.5978 13.6317 49.342 13.097 47.9653C12.5624 46.5886 12.3057 45.1185 12.3421 43.6409C12.3786 42.1633 12.7073 40.7079 13.3091 39.3595C13.911 38.0111 14.7739 36.7968 15.8475 35.7875C16.9211 34.7783 18.1838 33.9942 19.562 33.4812C20.9402 32.9682 22.4062 32.7364 23.8744 32.7995Z" fill="url(#paint4_linear_3263_23883)"/>
<path d="M61.911 56.838C61.911 59.836 60.7269 62.7113 58.6191 64.8312C56.5114 66.9512 53.6526 68.1422 50.6718 68.1422C47.6909 68.1422 44.8322 66.9512 42.7244 64.8312C40.6166 62.7113 39.4325 59.836 39.4325 56.838C39.4325 53.8399 40.6166 50.9647 42.7244 48.8447C44.8322 46.7248 47.6909 45.5338 50.6718 45.5338C53.6526 45.5338 56.5114 46.7248 58.6191 48.8447C60.7269 50.9647 61.911 53.8399 61.911 56.838Z" fill="url(#paint5_linear_3263_23883)"/>
<path d="M77.5932 32.7997C80.5613 32.7804 83.4156 33.947 85.5289 36.0432C87.6422 38.1395 88.8416 40.9938 88.8635 43.9791C88.91 49.8262 83.7378 55.0127 77.8363 55.0283C71.433 55.0283 66.2867 50.1019 66.2815 43.927C66.2763 37.7521 71.3089 32.8362 77.5932 32.7997Z" fill="url(#paint6_linear_3263_23883)"/>
<path d="M61.9265 13.1245C62.2162 19.1641 57.1215 24.0853 50.2218 24.4494C45.003 24.6939 39.6652 19.2889 39.4584 13.525C39.2204 7.57381 44.0254 2.48096 50.0666 2.08039C56.2888 1.62261 62.5317 7.2825 61.9265 13.1245Z" fill="url(#paint7_linear_3263_23883)"/>
<defs>
<linearGradient id="paint0_linear_3263_23883" x1="29.6155" y1="84.5893" x2="71.7419" y2="84.5893" gradientUnits="userSpaceOnUse">
<stop stop-color="#DDB759"/>
<stop offset="1" stop-color="#9C8443"/>
</linearGradient>
<linearGradient id="paint1_linear_3263_23883" x1="2.70465" y1="71.2243" x2="34.8033" y2="71.2243" gradientUnits="userSpaceOnUse">
<stop stop-color="#DDB759"/>
<stop offset="1" stop-color="#9C8443"/>
</linearGradient>
<linearGradient id="paint2_linear_3263_23883" x1="66.7626" y1="71.1515" x2="98.589" y2="71.1515" gradientUnits="userSpaceOnUse">
<stop stop-color="#DDB759"/>
<stop offset="1" stop-color="#9C8443"/>
</linearGradient>
<linearGradient id="paint3_linear_3263_23883" x1="35.0361" y1="34.0965" x2="66.1057" y2="34.0965" gradientUnits="userSpaceOnUse">
<stop stop-color="#DDB759"/>
<stop offset="1" stop-color="#9C8443"/>
</linearGradient>
<linearGradient id="paint4_linear_3263_23883" x1="12.3387" y1="43.918" x2="34.9899" y2="43.918" gradientUnits="userSpaceOnUse">
<stop stop-color="#DDB759"/>
<stop offset="1" stop-color="#9C8443"/>
</linearGradient>
<linearGradient id="paint5_linear_3263_23883" x1="39.4325" y1="56.838" x2="61.911" y2="56.838" gradientUnits="userSpaceOnUse">
<stop stop-color="#DDB759"/>
<stop offset="1" stop-color="#9C8443"/>
</linearGradient>
<linearGradient id="paint6_linear_3263_23883" x1="66.2815" y1="43.9139" x2="88.8638" y2="43.9139" gradientUnits="userSpaceOnUse">
<stop stop-color="#DDB759"/>
<stop offset="1" stop-color="#9C8443"/>
</linearGradient>
<linearGradient id="paint7_linear_3263_23883" x1="39.4499" y1="13.2559" x2="61.9673" y2="13.2559" gradientUnits="userSpaceOnUse">
<stop stop-color="#DDB759"/>
<stop offset="1" stop-color="#9C8443"/>
</linearGradient>
</defs>
</svg>
