<svg width="48" height="48" viewBox="0 0 48 48" fill="none" xmlns="http://www.w3.org/2000/svg">
<g clip-path="url(#clip0_3316_23619)">
<path d="M40.6905 7.30949C36.8293 3.44909 31.749 1.04689 26.3152 0.512168C20.8814 -0.0225486 15.4304 1.3433 10.8907 4.37701C6.35105 7.41072 3.00369 11.9246 1.41894 17.1496C-0.165816 22.3745 0.110084 27.9874 2.19963 33.0317C4.28918 38.0761 8.06309 42.2399 12.8784 44.8138C17.6937 47.3876 23.2524 48.2123 28.6076 47.1473C33.9627 46.0822 38.7829 43.1933 42.2469 38.9729C45.7109 34.7524 47.6045 29.4614 47.6048 24.0014C47.609 20.9008 47.0002 17.8299 45.8136 14.9653C44.627 12.1008 42.8859 9.49897 40.6905 7.30949ZM36.9107 36.9134C35.2173 38.6106 33.2055 39.9566 30.9906 40.8742C28.7757 41.7918 26.4014 42.2629 24.0039 42.2605V26.883L23.7879 26.696C23.1473 26.6426 22.5467 26.3624 22.0942 25.9058L11.0892 36.9134C9.39147 35.2204 8.0449 33.2086 7.12683 30.9937C6.20876 28.7788 5.7373 26.4043 5.73951 24.0066H21.2988C21.2984 23.6516 21.368 23.3 21.5036 22.9719C21.6392 22.6437 21.8381 22.3455 22.089 22.0943L11.0892 11.0893C13.6426 8.53661 16.8956 6.79821 20.4368 6.09389C23.978 5.38956 27.6485 5.75092 30.9844 7.1323C34.3203 8.51367 37.1717 10.853 39.1783 13.8547C41.1849 16.8563 42.2565 20.3855 42.2578 23.9961H26.7012C26.7007 24.6688 26.4489 25.317 25.9952 25.8136L25.9768 25.9664L36.9107 36.9134Z" fill="#E5E5E3" stroke="#222222" stroke-width="0.79021" stroke-miterlimit="10"/>
<path d="M11.0892 11.0892C9.39124 12.7821 8.04451 14.7938 7.12643 17.0088C6.20834 19.2237 5.73701 21.5983 5.73951 23.996H21.2987C21.2984 23.641 21.368 23.2893 21.5036 22.9612C21.6392 22.6331 21.8381 22.3349 22.089 22.0837L11.0892 11.0892ZM26.7012 23.996C26.7007 24.6687 26.4489 25.3169 25.9952 25.8135L25.9768 25.9663L36.9107 36.9028C38.6076 35.2093 39.9535 33.1974 40.8711 30.9825C41.7886 28.7676 42.2599 26.3934 42.2578 23.996H26.7012ZM23.7826 26.6959C23.142 26.6425 22.5414 26.3623 22.089 25.9057L11.0892 36.9133C12.7824 38.6107 14.7942 39.9569 17.0092 40.8745C19.2241 41.7921 21.5985 42.2631 23.996 42.2604V26.8829L23.7826 26.6959Z" stroke="#222222" stroke-width="0.79021" stroke-miterlimit="10"/>
<path d="M22.089 25.9136L11.0892 36.9134C9.39147 35.2203 8.04489 33.2086 7.12683 30.9936C6.20876 28.7787 5.7373 26.4042 5.73951 24.0066H21.2987C21.2994 24.7218 21.5836 25.4076 22.089 25.9136Z" fill="#222222" stroke="#222222" stroke-width="0.79021" stroke-miterlimit="10"/>
<path d="M23.9986 5.7422V21.2988C23.644 21.2984 23.2927 21.3679 22.965 21.5035C22.6373 21.6392 22.3396 21.8381 22.089 22.089L11.0892 11.0893C12.7827 9.39157 14.795 8.04522 17.0104 7.1276C19.2258 6.20997 21.6007 5.73915 23.9986 5.7422Z" fill="#222222" stroke="#222222" stroke-width="0.79021" stroke-miterlimit="10"/>
<path d="M23.9987 42.2605V26.883L23.7827 26.696C23.8538 26.696 23.9276 26.696 24.0013 26.696C24.3768 26.6958 24.7481 26.6172 25.0914 26.4653C25.4348 26.3133 25.7426 26.0914 25.9953 25.8136L25.9768 25.9664L36.9107 36.9029C35.2176 38.6026 33.2053 39.9509 30.9894 40.8703C28.7735 41.7898 26.3977 42.2622 23.9987 42.2605Z" fill="#222222" stroke="#222222" stroke-width="0.79021" stroke-miterlimit="10"/>
<path d="M42.2578 24.0013H26.7012C26.7016 23.6466 26.632 23.2954 26.4964 22.9677C26.3608 22.64 26.1619 22.3422 25.9109 22.0916L36.9107 11.0892C38.6085 12.7832 39.9548 14.7959 40.8725 17.0118C41.7901 19.2276 42.2609 21.6029 42.2578 24.0013Z" fill="#222222" stroke="#222222" stroke-width="0.79021" stroke-miterlimit="10"/>
<path d="M36.9107 11.0893L25.9109 22.089C25.6601 21.8383 25.3624 21.6395 25.0347 21.5039C24.707 21.3684 24.3559 21.2987 24.0013 21.2988V5.7422C26.3991 5.73944 28.774 6.21039 30.9893 7.128C33.2047 8.04561 35.217 9.39181 36.9107 11.0893Z" fill="#E5E5E3" stroke="#222222" stroke-width="0.79021" stroke-miterlimit="10"/>
<path d="M23.9987 47.6048V42.2604" stroke="#222222" stroke-width="0.79021" stroke-miterlimit="10"/>
<path d="M23.9987 5.74223V0.395142" stroke="#222222" stroke-width="0.79021" stroke-miterlimit="10"/>
<path d="M47.6049 24.0013H42.2578" stroke="#222222" stroke-width="0.79021" stroke-miterlimit="10"/>
<path d="M5.73954 24.0013H0.395081" stroke="#222222" stroke-width="0.79021" stroke-miterlimit="10"/>
<path d="M40.6905 40.6905L36.9107 36.9133" stroke="#222222" stroke-width="0.79021" stroke-miterlimit="10"/>
<path d="M11.0893 11.0893L7.30942 7.30945" stroke="#222222" stroke-width="0.79021" stroke-miterlimit="10"/>
<path d="M40.6905 7.30945L36.9107 11.0893" stroke="#222222" stroke-width="0.79021" stroke-miterlimit="10"/>
<path d="M11.0893 36.9133L7.30942 40.6905" stroke="#222222" stroke-width="0.79021" stroke-miterlimit="10"/>
<path d="M26.7012 24.0013C26.7015 24.3561 26.6319 24.7074 26.4964 25.0353C26.3609 25.3632 26.162 25.6611 25.9113 25.9121C25.6606 26.1631 25.3628 26.3622 25.0351 26.498C24.7073 26.6339 24.356 26.7038 24.0013 26.7038C23.9275 26.7038 23.8538 26.7038 23.7826 26.7038C23.085 26.6504 22.4352 26.3285 21.97 25.8057C21.5049 25.283 21.2606 24.6003 21.2886 23.9011C21.3166 23.2019 21.6146 22.5409 22.1201 22.057C22.6255 21.5731 23.2989 21.3041 23.9986 21.3067C24.3532 21.3065 24.7044 21.3762 25.0321 21.5118C25.3597 21.6474 25.6575 21.8462 25.9083 22.0969C26.1591 22.3467 26.3581 22.6434 26.4942 22.9702C26.6302 23.297 26.7005 23.6473 26.7012 24.0013Z" fill="#222222"/>
<path d="M23.7826 27.5415C25.732 27.5415 27.3122 25.9613 27.3122 24.0119C27.3122 22.0626 25.732 20.4823 23.7826 20.4823C21.8333 20.4823 20.253 22.0626 20.253 24.0119C20.253 25.9613 21.8333 27.5415 23.7826 27.5415Z" fill="#E5E5E3" stroke="#222222" stroke-width="0.526807" stroke-miterlimit="10"/>
<path d="M25.5896 26.077L25.5396 26.1165C25.3021 26.282 25.054 26.4316 24.7968 26.5643L23.5219 27.4282L21.1354 29.035V26.3562V25.0155C21.135 24.804 21.12 24.5927 21.0907 24.3833C21.0679 24.2184 21.0609 24.0517 21.0696 23.8855C21.1046 23.1668 21.4216 22.491 21.952 22.0048C21.9994 21.9626 22.0468 21.9205 22.0969 21.881C22.6328 21.4594 23.3055 21.2504 23.986 21.2942C24.6665 21.3379 25.307 21.6313 25.7845 22.118C25.8161 22.1496 25.8425 22.1812 25.8714 22.2128C26.3452 22.7632 26.5816 23.4789 26.5287 24.2031C26.4759 24.9274 26.1382 25.6012 25.5896 26.077Z" fill="#E5E5E3" stroke="#222222" stroke-width="0.526807" stroke-linecap="round" stroke-linejoin="round"/>
<path d="M23.7826 25.3868C24.4518 25.3868 24.9943 24.8443 24.9943 24.1752C24.9943 23.506 24.4518 22.9635 23.7826 22.9635C23.1134 22.9635 22.571 23.506 22.571 24.1752C22.571 24.8443 23.1134 25.3868 23.7826 25.3868Z" fill="#222222"/>
</g>
<defs>
<clipPath id="clip0_3316_23619">
<rect width="48" height="48" fill="white"/>
</clipPath>
</defs>
</svg>
