<svg width="50" height="51" viewBox="0 0 50 51" fill="none" xmlns="http://www.w3.org/2000/svg">
<path d="M20.0186 31.2385C19.7225 31.1702 19.4491 31.1246 19.1871 31.0449C18.3765 30.8301 17.6223 30.4415 16.9771 29.9059C16.3306 29.3641 15.8393 28.6607 15.5532 27.8672C15.4962 27.7192 15.5532 27.6736 15.7013 27.685H17.0227C17.1876 27.676 17.3515 27.6531 17.5125 27.6167C17.2505 27.5256 17.0341 27.4572 16.8177 27.3661C16.0258 27.0398 15.3323 26.5135 14.8052 25.8387C14.278 25.1638 13.9351 24.3636 13.8103 23.5165C13.799 23.3192 13.799 23.1215 13.8103 22.9242C13.8103 22.7192 13.8103 22.6965 14.0268 22.7762C14.5487 23.0262 15.1057 23.1951 15.6785 23.2773H15.8836L15.7696 23.1748C15.2186 22.7495 14.7626 22.2137 14.431 21.6017C14.0995 20.9897 13.8997 20.3151 13.8445 19.6213C13.7225 18.7214 13.9071 17.8067 14.3685 17.0245C14.5394 16.7284 14.5736 16.7284 14.8014 17.0245C16.631 19.0572 19.0017 20.5268 21.6363 21.2614C22.5959 21.5425 23.5742 21.7556 24.5638 21.8992C24.7347 21.8992 24.7461 21.8992 24.7233 21.7511C24.5939 21.0148 24.6368 20.2585 24.8486 19.5416C25.1062 18.6569 25.6049 17.8613 26.2889 17.2438C26.9729 16.6263 27.8152 16.2112 28.7217 16.045C29.4622 15.8722 30.2334 15.8792 30.9706 16.0655C31.7079 16.2517 32.3898 16.6119 32.9593 17.1157C33.0386 17.1721 33.1079 17.2414 33.1644 17.3207C33.2014 17.3672 33.252 17.4011 33.3092 17.4174C33.3664 17.4338 33.4273 17.4318 33.4834 17.4118C34.4184 17.1761 35.324 16.836 36.1831 16.3981C36.2608 16.3686 36.3408 16.3458 36.4223 16.3298C36.4287 16.4094 36.4287 16.4893 36.4223 16.5689C36.0659 17.4859 35.448 18.2779 34.6453 18.8468C35.4531 18.7128 36.2413 18.4795 36.9919 18.1521C37.0047 18.2274 37.0023 18.3045 36.9847 18.3789C36.9671 18.4533 36.9347 18.5233 36.8894 18.5849C36.3256 19.3745 35.6369 20.0669 34.8503 20.635C34.7932 20.6743 34.7468 20.7271 34.715 20.7887C34.6832 20.8503 34.6671 20.9187 34.6681 20.988C34.6886 22.8982 34.3962 24.7988 33.8023 26.6144C33.1863 28.4985 32.1256 30.2066 30.7099 31.5943C29.2942 32.982 27.5651 34.0085 25.6688 34.587C23.8619 35.192 21.9544 35.4396 20.0528 35.3159C17.9382 35.2243 15.8678 34.6806 13.9812 33.7214C13.6964 33.5733 13.423 33.4025 13.1496 33.243L13.0471 33.1633C12.9787 33.095 12.9901 33.0494 13.0471 33.038H13.1382C14.6508 33.2046 16.1813 33.0094 17.6037 32.4685C18.1391 32.2749 18.6631 32.0585 19.1871 31.8307C19.3936 31.7204 19.5916 31.5947 19.7794 31.4549C19.8618 31.3857 19.9416 31.3135 20.0186 31.2385Z" fill="#E5E5E3"/>
<circle cx="25" cy="25.9204" r="24.5" stroke="#999999"/>
</svg>
