<svg width="50" height="51" viewBox="0 0 50 51" fill="none" xmlns="http://www.w3.org/2000/svg">
<path d="M36.0295 20.9367C35.345 19.3908 34.3359 18.0105 33.0708 16.8899C31.8056 15.7693 30.3142 14.9346 28.6978 14.4426C26.2986 13.7063 23.728 13.7496 21.3549 14.5664C20.0351 15.0161 18.8081 15.7026 17.7341 16.5923C16.1303 17.9088 14.901 19.6244 14.1695 21.567C13.7277 22.6746 13.4877 23.8525 13.461 25.0448C13.3441 26.7571 13.6451 28.4721 14.3381 30.042C14.563 30.5372 14.8217 31.0211 15.069 31.5164C15.0941 31.5691 15.107 31.6268 15.107 31.6852C15.107 31.7436 15.0941 31.8012 15.069 31.854C14.7429 32.7882 14.4056 33.7336 14.0908 34.6677C13.8883 35.2417 13.6972 35.7932 13.506 36.3897C13.3149 36.9863 13.1687 37.3914 13 37.9204L14.5068 37.4477L19.3758 35.9058C19.4597 35.8775 19.5506 35.8775 19.6345 35.9058C20.3256 36.2672 21.0483 36.5648 21.7935 36.7949C24.1783 37.5073 26.7258 37.4561 29.0801 36.6486C30.342 36.2183 31.521 35.575 32.5661 34.7465C34.1643 33.4748 35.4076 31.8117 36.1756 29.9182C36.733 28.5975 37.0124 27.1761 36.9965 25.7426C37.0381 24.0883 36.7076 22.4459 36.0295 20.9367ZM32.5885 32.0791C31.6302 33.1622 30.4381 34.0128 29.1026 34.5664C26.7516 35.5728 24.101 35.6212 21.7148 34.7015C21.0924 34.466 20.4938 34.1721 19.9268 33.8236C19.8401 33.7897 19.7437 33.7897 19.657 33.8236L16.2835 34.8816L16.0249 34.9604C16.1036 34.724 16.171 34.5327 16.2273 34.3526C16.5421 33.4072 16.857 32.473 17.1831 31.5276C17.2158 31.4733 17.2331 31.411 17.2331 31.3475C17.2331 31.2841 17.2158 31.2218 17.1831 31.1675C16.3596 29.9731 15.8129 28.6098 15.5829 27.177C15.353 25.7442 15.4456 24.2781 15.854 22.8858C16.2624 21.4934 16.9763 20.2098 17.9436 19.1288C18.9108 18.0478 20.107 17.1966 21.4449 16.6373C23.7171 15.6805 26.2653 15.6123 28.5854 16.446C30.0349 16.9558 31.3418 17.8047 32.3974 18.9221C33.8904 20.4164 34.8236 22.3798 35.0399 24.482C35.2112 25.8507 35.0805 27.2403 34.6569 28.553C34.2334 29.8656 33.5273 31.0693 32.5885 32.0791Z" fill="#E5E5E3"/>
<path d="M31.9749 29.4258C31.8521 30.8627 30.9923 31.5872 29.5184 31.882C28.8162 32.0252 28.0869 31.9481 27.4303 31.6609C26.32 31.3011 25.2531 30.8192 24.2491 30.2241C23.228 29.5059 22.3069 28.6552 21.51 27.6943C20.7128 26.8244 20.0202 25.864 19.4465 24.8329C19.1177 24.2463 18.9128 23.5984 18.8446 22.9294C18.8046 22.3333 18.9011 21.7358 19.1267 21.1826C19.3523 20.6293 19.7011 20.1347 20.1466 19.7365C20.2776 19.6249 20.4306 19.5422 20.5956 19.4935C20.7607 19.4448 20.9341 19.4314 21.1047 19.454C21.3012 19.454 21.4854 19.454 21.682 19.454C21.8024 19.4429 21.9229 19.4734 22.0235 19.5405C22.1241 19.6076 22.1986 19.7071 22.2347 19.8225C22.3698 20.154 22.5049 20.4979 22.6277 20.8417L23.2296 22.4751C23.2837 22.5661 23.3122 22.67 23.3122 22.7759C23.3122 22.8818 23.2837 22.9857 23.2296 23.0768C22.9594 23.4329 22.7014 23.7768 22.4067 24.1084C22.1119 24.44 22.0996 24.5136 22.2961 24.882C22.9327 26.1144 23.8655 27.1693 25.0106 27.9522C25.5634 28.2959 26.1333 28.6115 26.7179 28.8978C26.8124 28.952 26.9235 28.9694 27.03 28.9468C27.1366 28.9241 27.231 28.8629 27.2952 28.775C27.6391 28.382 27.9953 27.989 28.3392 27.5469C28.6831 27.1048 28.72 27.1908 29.0639 27.3504C29.8132 27.7189 30.5624 28.1118 31.2994 28.4925C31.392 28.5369 31.4822 28.5861 31.5696 28.6399C31.9872 28.9223 32.0241 28.9837 31.9749 29.4258Z" fill="#E5E5E3"/>
<circle cx="25" cy="25.9204" r="24.5" stroke="#999999"/>
</svg>
