<svg width="142" height="41" viewBox="0 0 142 41" fill="none" xmlns="http://www.w3.org/2000/svg">
<g clip-path="url(#clip0_3260_23781)">
<path d="M31.4565 9.51942C31.2057 9.34012 30.8957 9.26385 30.5904 9.30632C30.4325 9.33285 30.2819 9.39231 30.1485 9.48084C29.9494 9.65707 29.7614 9.84542 29.5855 10.0448C28.9142 10.8031 28.3944 11.683 28.0543 12.6369C27.9414 12.967 27.8521 13.3046 27.787 13.6473C22.6341 11.5503 16.8656 11.5503 11.7127 13.6473C11.6237 13.1074 11.473 12.5794 11.2635 12.0739C11.0242 11.5134 10.7213 10.9824 10.3606 10.4912C10.0569 10.0532 9.71906 9.63975 9.35024 9.25488C9.18606 9.20666 9.01511 9.18557 8.84413 9.19242C8.54135 9.20788 8.24894 9.30779 8 9.48084C8.18507 9.23862 8.28573 8.94246 8.28658 8.63763C8.28513 8.33346 8.18451 8.03807 8 7.79625C8.24139 7.98305 8.53798 8.08441 8.84321 8.08441C9.14844 8.08441 9.44503 7.98305 9.68642 7.79625C9.54505 7.97945 9.45209 8.19531 9.41613 8.42391C9.38017 8.65251 9.40237 8.88648 9.48067 9.10424C9.80498 9.43302 10.1765 9.71164 10.5829 9.93092C11.2195 10.2726 11.8689 10.6207 12.3823 10.381C13.2861 9.95939 13.1805 8.00017 13.1695 7.79442C13.1585 7.58866 13.13 7.38934 13.13 7.38934C13.0896 7.10151 13.0238 6.8178 12.9334 6.54154C12.7433 6.42164 12.5267 6.35008 12.3026 6.33311C12.0784 6.31614 11.8535 6.35427 11.6475 6.44417C11.8862 6.25456 12.0557 5.99137 12.1294 5.69553C12.2032 5.39969 12.1771 5.08777 12.0553 4.80827C12.2449 5.04703 12.5081 5.21646 12.804 5.29021C13.0998 5.36396 13.4117 5.33791 13.6912 5.2161C13.4557 5.40864 13.2869 5.67062 13.209 5.9647C13.1713 6.11719 13.1601 6.27503 13.1759 6.43131C13.434 6.75188 13.6866 7.0403 13.9254 7.29933C14.2644 7.66674 14.5455 7.93587 14.6373 8.02221C15.4401 8.78184 16.3246 9.6177 17.1072 9.48084C17.7787 9.36602 18.1342 8.57792 18.7937 7.12021C19.1851 6.25388 19.4948 5.35286 19.7186 4.42892C19.6537 4.30103 19.5691 4.18417 19.4679 4.08263C19.2498 3.87035 18.97 3.7327 18.6687 3.6895C18.971 3.64889 19.2516 3.51049 19.4679 3.29545C19.6822 3.08019 19.8205 2.80094 19.8619 2.5C19.9016 2.80233 20.0398 3.08317 20.255 3.29912C20.4713 3.51417 20.7519 3.65256 21.0542 3.69317C20.7506 3.72864 20.4684 3.86745 20.255 4.0863C20.1628 4.18561 20.0877 4.29952 20.0328 4.4234C20.1223 5.35154 20.3498 6.26111 20.7079 7.12205C21.2213 8.35656 21.6172 9.30724 22.3943 9.48268C23.5333 9.7417 24.8413 8.18295 25.5421 7.34709C25.8594 6.96868 26.1448 6.56468 26.3954 6.13922C26.3925 5.90903 26.3321 5.68321 26.2199 5.48224C26.1076 5.28127 25.9469 5.11149 25.7525 4.9883C26.0432 5.08024 26.3562 5.07353 26.6427 4.96921C26.9293 4.86489 27.1733 4.66881 27.3369 4.41146C27.2451 4.70223 27.2519 5.01516 27.3562 5.30167C27.4605 5.58817 27.6565 5.83223 27.9138 5.99593C27.6228 5.90408 27.3097 5.91054 27.0228 6.0143C26.8929 6.06408 26.772 6.13449 26.6646 6.22281C26.5016 6.84652 26.4259 7.48978 26.4395 8.13427C26.4616 9.12537 26.4799 9.94378 27.0017 10.2699C27.776 10.7548 29.1584 9.84274 29.3632 9.70772C29.5637 9.57522 29.7519 9.42488 29.9253 9.25855C29.9753 9.11086 29.9969 8.95501 29.9887 8.79929C29.9678 8.4941 29.8408 8.20586 29.6296 7.98455C29.8868 8.14876 30.191 8.22337 30.495 8.19679C30.799 8.17021 31.0857 8.04393 31.3105 7.83759C31.1452 8.09443 31.07 8.39891 31.0966 8.70317C31.1232 9.00744 31.2501 9.29424 31.4575 9.5185L31.4565 9.51942Z" fill="#D3AC46"/>
<path d="M30.053 27.271C30.0531 27.3687 30.0208 27.4636 29.9612 27.541C27.1388 31.1772 24.3128 34.8133 21.4831 38.4495C21.471 38.4652 21.4554 38.478 21.4376 38.4867C21.4197 38.4955 21.4001 38.5 21.3803 38.5H20.5839C20.5492 38.5 20.5159 38.4863 20.4913 38.4619C20.4667 38.4374 20.4528 38.4043 20.4525 38.3696V15.0389C20.4528 14.9231 20.499 14.8121 20.5809 14.7303C20.6629 14.6485 20.774 14.6026 20.8898 14.6026H29.569C29.6844 14.6026 29.7951 14.6483 29.8768 14.7297C29.9586 14.8111 30.0048 14.9216 30.0053 15.037C30.0114 16.6904 30.0184 18.3416 30.0264 19.9907C30.0268 20.0482 30.0157 20.1052 29.994 20.1585C29.9722 20.2117 29.9401 20.2602 29.8996 20.301C29.859 20.3418 29.8108 20.3742 29.7577 20.3963C29.7046 20.4184 29.6476 20.4297 29.5901 20.4297H27.2524C27.1366 20.4295 27.0257 20.3833 26.9439 20.3013C26.8621 20.2194 26.8161 20.1083 26.8161 19.9925V18.172C26.8159 18.0562 26.7697 17.9452 26.6877 17.8634C26.6058 17.7816 26.4947 17.7357 26.3789 17.7357H24.0155C23.8997 17.7357 23.7887 17.7816 23.7067 17.8634C23.6247 17.9452 23.5785 18.0562 23.5783 18.172V29.8777C23.5782 29.905 23.5865 29.9316 23.6023 29.9538C23.618 29.976 23.6403 29.9927 23.666 30.0016C23.6918 30.0106 23.7196 30.0112 23.7457 30.0035C23.7718 29.9958 23.7949 29.9801 23.8116 29.9586C24.7136 28.8159 25.6153 27.6736 26.5167 26.5315C26.629 26.4086 26.6981 26.2523 26.7134 26.0865C26.7286 25.9206 26.6892 25.7544 26.6012 25.613C26.5255 25.5034 26.4222 25.4157 26.3017 25.3589C26.1812 25.3021 26.0478 25.2783 25.915 25.2897H25.0103C24.8597 25.2897 24.7154 25.2299 24.6089 25.1234C24.5024 25.017 24.4426 24.8726 24.4426 24.722V22.6158C24.4426 22.4653 24.5024 22.3209 24.6089 22.2144C24.7154 22.108 24.8597 22.0482 25.0103 22.0482H29.5956C29.7113 22.0484 29.8221 22.0943 29.9042 22.1758C29.9862 22.2573 30.0328 22.3679 30.0337 22.4836L30.053 27.271Z" fill="#D3AC46"/>
<path d="M18.3399 14.6062H10.0401C9.96885 14.6062 9.89835 14.6203 9.83259 14.6476C9.76683 14.6749 9.70711 14.7149 9.65685 14.7654C9.60659 14.8158 9.56678 14.8756 9.53969 14.9415C9.51261 15.0074 9.4988 15.0779 9.49904 15.1491C9.50455 16.3965 9.50945 17.6441 9.51374 18.8921C9.51498 18.9663 9.54082 19.0381 9.58722 19.096L11.0312 20.8798C11.0532 20.9053 11.067 20.9367 11.0709 20.9702C11.0747 21.0036 11.0684 21.0374 11.0527 21.0672C11.037 21.0969 11.0127 21.1213 10.983 21.137C10.9532 21.1528 10.9195 21.1592 10.886 21.1554L9.8885 21.0635C9.84281 21.059 9.79669 21.0642 9.75312 21.0786C9.70954 21.0931 9.66949 21.1165 9.63555 21.1474C9.60161 21.1783 9.57454 21.216 9.55608 21.2581C9.53763 21.3001 9.52821 21.3455 9.52843 21.3914C9.53762 23.3424 9.54619 25.2934 9.55415 27.2443C9.55495 27.3639 9.5946 27.4799 9.66713 27.575L18.1176 38.4431C18.1332 38.4631 18.1531 38.4793 18.1758 38.4904C18.1986 38.5016 18.2236 38.5074 18.249 38.5074H18.8919C18.9363 38.5074 18.9788 38.4897 19.0102 38.4584C19.0415 38.427 19.0591 38.3845 19.0591 38.3402V15.3135C19.0591 15.2196 19.0404 15.1267 19.0042 15.0401C18.9679 14.9535 18.9147 14.875 18.8478 14.8091C18.7808 14.7433 18.7014 14.6915 18.6142 14.6566C18.527 14.6218 18.4338 14.6047 18.3399 14.6062ZM15.9177 29.8796C15.9167 29.9133 15.9055 29.9459 15.8856 29.9731C15.8657 30.0003 15.8381 30.0209 15.8063 30.0321C15.7745 30.0433 15.7401 30.0447 15.7075 30.036C15.6749 30.0273 15.6458 30.009 15.6238 29.9834L12.7966 26.4085C12.7228 26.312 12.6833 26.1937 12.6845 26.0723V24.5236C12.6846 24.4455 12.7089 24.3693 12.7541 24.3055C12.7992 24.2417 12.863 24.1934 12.9367 24.1673C13.0104 24.1413 13.0904 24.1386 13.1656 24.1598C13.2408 24.181 13.3076 24.225 13.3569 24.2857L15.8838 27.4087C15.9078 27.4384 15.9211 27.4753 15.9214 27.5135L15.9177 29.8796ZM15.6238 22.8914L12.7212 19.3091C12.6974 19.2794 12.6845 19.2425 12.6845 19.2044V18.4457C12.6844 18.3529 12.7026 18.2609 12.738 18.1751C12.7735 18.0893 12.8255 18.0113 12.8911 17.9457C12.9567 17.88 13.0346 17.8279 13.1203 17.7923C13.2061 17.7567 13.298 17.7384 13.3909 17.7384H15.2105C15.3033 17.7384 15.3953 17.7567 15.4811 17.7923C15.5669 17.8278 15.6449 17.8799 15.7106 17.9456C15.7763 18.0113 15.8284 18.0892 15.8639 18.175C15.8994 18.2609 15.9177 18.3528 15.9177 18.4457V22.7894C15.9164 22.823 15.9049 22.8553 15.8849 22.8823C15.8649 22.9092 15.8372 22.9295 15.8055 22.9405C15.7738 22.9515 15.7395 22.9527 15.7071 22.944C15.6747 22.9352 15.6457 22.9169 15.6238 22.8914Z" fill="#D3AC46"/>
</g>
<path d="M41.7216 29V11.5455H48.4034C49.6648 11.5455 50.7131 11.7443 51.5483 12.142C52.3892 12.5341 53.017 13.071 53.4318 13.7528C53.8523 14.4347 54.0625 15.2074 54.0625 16.071C54.0625 16.7812 53.9261 17.3892 53.6534 17.8949C53.3807 18.3949 53.0142 18.8011 52.554 19.1136C52.0938 19.4261 51.5795 19.6506 51.0114 19.7869V19.9574C51.6307 19.9915 52.2244 20.1818 52.7926 20.5284C53.3665 20.8693 53.8352 21.3523 54.1989 21.9773C54.5625 22.6023 54.7443 23.358 54.7443 24.2443C54.7443 25.1477 54.5256 25.9602 54.0881 26.6818C53.6506 27.3977 52.9915 27.9631 52.1108 28.3778C51.2301 28.7926 50.1222 29 48.7869 29H41.7216ZM44.8835 26.358H48.2841C49.4318 26.358 50.2585 26.1392 50.7642 25.7017C51.2756 25.2585 51.5312 24.6903 51.5312 23.9972C51.5312 23.4801 51.4034 23.0142 51.1477 22.5994C50.892 22.179 50.5284 21.8494 50.0568 21.6108C49.5852 21.3665 49.0227 21.2443 48.3693 21.2443H44.8835V26.358ZM44.8835 18.9688H48.0114C48.5568 18.9688 49.0483 18.8693 49.4858 18.6705C49.9233 18.4659 50.267 18.179 50.517 17.8097C50.7727 17.4347 50.9006 16.9915 50.9006 16.4801C50.9006 15.804 50.6619 15.2472 50.1847 14.8097C49.7131 14.3722 49.0114 14.1534 48.0795 14.1534H44.8835V18.9688ZM61.1257 29.2642C60.2962 29.2642 59.549 29.1165 58.8842 28.821C58.2251 28.5199 57.7024 28.0767 57.3161 27.4915C56.9354 26.9062 56.745 26.1847 56.745 25.3267C56.745 24.5881 56.8814 23.9773 57.1541 23.4943C57.4268 23.0114 57.799 22.625 58.2706 22.3352C58.7422 22.0455 59.2734 21.8267 59.8643 21.679C60.4609 21.5256 61.0774 21.4148 61.7138 21.3466C62.4808 21.267 63.103 21.196 63.5803 21.1335C64.0575 21.0653 64.4041 20.9631 64.62 20.8267C64.8416 20.6847 64.9524 20.4659 64.9524 20.1705V20.1193C64.9524 19.4773 64.7621 18.9801 64.3814 18.6278C64.0007 18.2756 63.4524 18.0994 62.7365 18.0994C61.9808 18.0994 61.3814 18.2642 60.9382 18.5938C60.5007 18.9233 60.2053 19.3125 60.0518 19.7614L57.1712 19.3523C57.3984 18.5568 57.7734 17.892 58.2962 17.358C58.8189 16.8182 59.4581 16.4148 60.2138 16.1477C60.9695 15.875 61.8047 15.7386 62.7195 15.7386C63.3501 15.7386 63.978 15.8125 64.603 15.9602C65.228 16.108 65.799 16.3523 66.3161 16.6932C66.8331 17.0284 67.2479 17.4858 67.5604 18.0653C67.8786 18.6449 68.0376 19.3693 68.0376 20.2386V29H65.0717V27.2017H64.9695C64.782 27.5653 64.5178 27.9062 64.1768 28.2244C63.8416 28.5369 63.4183 28.7898 62.907 28.983C62.4013 29.1705 61.8075 29.2642 61.1257 29.2642ZM61.9268 26.9972C62.5462 26.9972 63.0831 26.875 63.5376 26.6307C63.9922 26.3807 64.3416 26.0511 64.5859 25.642C64.8359 25.233 64.9609 24.7869 64.9609 24.304V22.7614C64.8643 22.8409 64.6996 22.9148 64.4666 22.983C64.2393 23.0511 63.9837 23.1108 63.6996 23.1619C63.4155 23.2131 63.1342 23.2585 62.8558 23.2983C62.5774 23.3381 62.3359 23.3722 62.1314 23.4006C61.6712 23.4631 61.2592 23.5653 60.8956 23.7074C60.532 23.8494 60.245 24.0483 60.0348 24.304C59.8246 24.554 59.7195 24.8778 59.7195 25.2756C59.7195 25.8438 59.9268 26.2727 60.3416 26.5625C60.7564 26.8523 61.2848 26.9972 61.9268 26.9972ZM70.9695 29V27.0398L77.7195 18.5767V18.4659H71.1911V15.9091H81.495V18.0142L75.0689 26.3324V26.4432H81.7166V29H70.9695ZM84.6165 29V15.9091H87.7017V29H84.6165ZM86.1676 14.0511C85.679 14.0511 85.2585 13.8892 84.9062 13.5653C84.554 13.2358 84.3778 12.8409 84.3778 12.3807C84.3778 11.9148 84.554 11.5199 84.9062 11.196C85.2585 10.8665 85.679 10.7017 86.1676 10.7017C86.6619 10.7017 87.0824 10.8665 87.429 11.196C87.7813 11.5199 87.9574 11.9148 87.9574 12.3807C87.9574 12.8409 87.7813 13.2358 87.429 13.5653C87.0824 13.8892 86.6619 14.0511 86.1676 14.0511ZM96.5675 34.1818C95.4595 34.1818 94.5078 34.0313 93.7124 33.7301C92.9169 33.4347 92.2777 33.0369 91.7947 32.5369C91.3118 32.0369 90.9766 31.483 90.7891 30.875L93.5675 30.2017C93.6925 30.4574 93.8743 30.7102 94.1129 30.9602C94.3516 31.2159 94.6726 31.4261 95.076 31.5909C95.4851 31.7614 95.9993 31.8466 96.6186 31.8466C97.4936 31.8466 98.218 31.6335 98.7919 31.2074C99.3658 30.7869 99.6527 30.0938 99.6527 29.1278V26.6477H99.4993C99.3402 26.9659 99.1072 27.2926 98.8004 27.6278C98.4993 27.9631 98.0987 28.2443 97.5987 28.4716C97.1044 28.6989 96.4822 28.8125 95.7322 28.8125C94.7266 28.8125 93.8146 28.5767 92.9964 28.1051C92.1839 27.6278 91.5362 26.9176 91.0533 25.9744C90.576 25.0256 90.3374 23.8381 90.3374 22.4119C90.3374 20.9744 90.576 19.7614 91.0533 18.7727C91.5362 17.7784 92.1868 17.0256 93.005 16.5142C93.8232 15.9972 94.7351 15.7386 95.7408 15.7386C96.5078 15.7386 97.1385 15.8693 97.6328 16.1307C98.1328 16.3864 98.5305 16.696 98.826 17.0597C99.1214 17.4176 99.3459 17.7557 99.4993 18.0739H99.6697V15.9091H102.712V29.2131C102.712 30.3324 102.445 31.2585 101.911 31.9915C101.377 32.7244 100.647 33.2727 99.7209 33.6364C98.7947 34 97.7436 34.1818 96.5675 34.1818ZM96.593 26.392C97.2464 26.392 97.8033 26.233 98.2635 25.9148C98.7237 25.5966 99.0732 25.1392 99.3118 24.5426C99.5504 23.946 99.6697 23.2301 99.6697 22.3949C99.6697 21.571 99.5504 20.8494 99.3118 20.2301C99.0788 19.6108 98.7322 19.1307 98.272 18.7898C97.8175 18.4432 97.2578 18.2699 96.593 18.2699C95.9055 18.2699 95.3317 18.4489 94.8714 18.8068C94.4112 19.1648 94.0646 19.6562 93.8317 20.2812C93.5987 20.9006 93.4822 21.6051 93.4822 22.3949C93.4822 23.196 93.5987 23.8977 93.8317 24.5C94.0703 25.0966 94.4197 25.5625 94.88 25.8977C95.3459 26.2273 95.9169 26.392 96.593 26.392ZM109.641 29.2642C108.812 29.2642 108.065 29.1165 107.4 28.821C106.741 28.5199 106.218 28.0767 105.832 27.4915C105.451 26.9062 105.261 26.1847 105.261 25.3267C105.261 24.5881 105.397 23.9773 105.67 23.4943C105.942 23.0114 106.315 22.625 106.786 22.3352C107.258 22.0455 107.789 21.8267 108.38 21.679C108.977 21.5256 109.593 21.4148 110.229 21.3466C110.996 21.267 111.619 21.196 112.096 21.1335C112.573 21.0653 112.92 20.9631 113.136 20.8267C113.357 20.6847 113.468 20.4659 113.468 20.1705V20.1193C113.468 19.4773 113.278 18.9801 112.897 18.6278C112.516 18.2756 111.968 18.0994 111.252 18.0994C110.496 18.0994 109.897 18.2642 109.454 18.5938C109.016 18.9233 108.721 19.3125 108.567 19.7614L105.687 19.3523C105.914 18.5568 106.289 17.892 106.812 17.358C107.335 16.8182 107.974 16.4148 108.729 16.1477C109.485 15.875 110.32 15.7386 111.235 15.7386C111.866 15.7386 112.494 15.8125 113.119 15.9602C113.744 16.108 114.315 16.3523 114.832 16.6932C115.349 17.0284 115.763 17.4858 116.076 18.0653C116.394 18.6449 116.553 19.3693 116.553 20.2386V29H113.587V27.2017H113.485C113.298 27.5653 113.033 27.9062 112.692 28.2244C112.357 28.5369 111.934 28.7898 111.423 28.983C110.917 29.1705 110.323 29.2642 109.641 29.2642ZM110.442 26.9972C111.062 26.9972 111.599 26.875 112.053 26.6307C112.508 26.3807 112.857 26.0511 113.102 25.642C113.352 25.233 113.477 24.7869 113.477 24.304V22.7614C113.38 22.8409 113.215 22.9148 112.982 22.983C112.755 23.0511 112.499 23.1108 112.215 23.1619C111.931 23.2131 111.65 23.2585 111.371 23.2983C111.093 23.3381 110.852 23.3722 110.647 23.4006C110.187 23.4631 109.775 23.5653 109.411 23.7074C109.048 23.8494 108.761 24.0483 108.55 24.304C108.34 24.554 108.235 24.8778 108.235 25.2756C108.235 25.8438 108.442 26.2727 108.857 26.5625C109.272 26.8523 109.8 26.9972 110.442 26.9972ZM123.423 29.2642C122.593 29.2642 121.846 29.1165 121.181 28.821C120.522 28.5199 119.999 28.0767 119.613 27.4915C119.232 26.9062 119.042 26.1847 119.042 25.3267C119.042 24.5881 119.178 23.9773 119.451 23.4943C119.724 23.0114 120.096 22.625 120.567 22.3352C121.039 22.0455 121.57 21.8267 122.161 21.679C122.758 21.5256 123.374 21.4148 124.011 21.3466C124.778 21.267 125.4 21.196 125.877 21.1335C126.354 21.0653 126.701 20.9631 126.917 20.8267C127.138 20.6847 127.249 20.4659 127.249 20.1705V20.1193C127.249 19.4773 127.059 18.9801 126.678 18.6278C126.298 18.2756 125.749 18.0994 125.033 18.0994C124.278 18.0994 123.678 18.2642 123.235 18.5938C122.798 18.9233 122.502 19.3125 122.349 19.7614L119.468 19.3523C119.695 18.5568 120.07 17.892 120.593 17.358C121.116 16.8182 121.755 16.4148 122.511 16.1477C123.266 15.875 124.102 15.7386 125.016 15.7386C125.647 15.7386 126.275 15.8125 126.9 15.9602C127.525 16.108 128.096 16.3523 128.613 16.6932C129.13 17.0284 129.545 17.4858 129.857 18.0653C130.175 18.6449 130.335 19.3693 130.335 20.2386V29H127.369V27.2017H127.266C127.079 27.5653 126.815 27.9062 126.474 28.2244C126.138 28.5369 125.715 28.7898 125.204 28.983C124.698 29.1705 124.104 29.2642 123.423 29.2642ZM124.224 26.9972C124.843 26.9972 125.38 26.875 125.835 26.6307C126.289 26.3807 126.638 26.0511 126.883 25.642C127.133 25.233 127.258 24.7869 127.258 24.304V22.7614C127.161 22.8409 126.996 22.9148 126.763 22.983C126.536 23.0511 126.281 23.1108 125.996 23.1619C125.712 23.2131 125.431 23.2585 125.153 23.2983C124.874 23.3381 124.633 23.3722 124.428 23.4006C123.968 23.4631 123.556 23.5653 123.192 23.7074C122.829 23.8494 122.542 24.0483 122.332 24.304C122.121 24.554 122.016 24.8778 122.016 25.2756C122.016 25.8438 122.224 26.2727 122.638 26.5625C123.053 26.8523 123.582 26.9972 124.224 26.9972ZM133.437 29V15.9091H136.428V18.0909H136.565C136.803 17.3352 137.212 16.7528 137.792 16.3438C138.377 15.929 139.045 15.7216 139.795 15.7216C139.965 15.7216 140.156 15.7301 140.366 15.7472C140.582 15.7585 140.761 15.7784 140.903 15.8068V18.6449C140.772 18.5994 140.565 18.5597 140.281 18.5256C140.002 18.4858 139.732 18.4659 139.471 18.4659C138.908 18.4659 138.403 18.5881 137.954 18.8324C137.511 19.071 137.161 19.4034 136.906 19.8295C136.65 20.2557 136.522 20.7472 136.522 21.304V29H133.437Z" fill="#E6E6E6"/>
<defs>
<clipPath id="clip0_3260_23781">
<rect width="23.4565" height="36" fill="white" transform="translate(8 2.5)"/>
</clipPath>
</defs>
</svg>
