
<svg width="24" height="25" viewBox="0 0 24 25" fill="none" xmlns="http://www.w3.org/2000/svg">
<g filter="url(#filter0_i_3701_27892)">
<path d="M12 24.4888C5.37258 24.4888 0 19.1162 0 12.4888C0 5.86135 5.37258 0.48877 12 0.48877C18.6274 0.48877 24 5.86135 24 12.4888C24 19.1162 18.6274 24.4888 12 24.4888Z" fill="#222222"/>
</g>
<path d="M10.5412 16.8742C10.6552 16.8742 10.7692 16.8322 10.8592 16.7422C11.0332 16.5682 11.0332 16.2802 10.8592 16.1062L7.5353 12.7822L10.8592 9.45815C11.0332 9.28415 11.0332 8.99615 10.8592 8.82215C10.6852 8.64815 10.3973 8.64815 10.2233 8.82215L6.58124 12.4642C6.40724 12.6382 6.40724 12.9262 6.58124 13.1002L10.2233 16.7422C10.3133 16.8322 10.4272 16.8742 10.5412 16.8742Z" fill="#D1AE55"/>
<path d="M7.00208 13.232H17.1C17.346 13.232 17.55 13.028 17.55 12.782C17.55 12.536 17.346 12.332 17.1 12.332H7.00208C6.75608 12.332 6.55208 12.536 6.55208 12.782C6.55208 13.028 6.75608 13.232 7.00208 13.232Z" fill="#D1AE55"/>
<defs>
<filter id="filter0_i_3701_27892" x="0" y="0.48877" width="26" height="26" filterUnits="userSpaceOnUse" color-interpolation-filters="sRGB">
<feFlood flood-opacity="0" result="BackgroundImageFix"/>
<feBlend mode="normal" in="SourceGraphic" in2="BackgroundImageFix" result="shape"/>
<feColorMatrix in="SourceAlpha" type="matrix" values="0 0 0 0 0 0 0 0 0 0 0 0 0 0 0 0 0 0 127 0" result="hardAlpha"/>
<feOffset dx="2" dy="2"/>
<feGaussianBlur stdDeviation="2"/>
<feComposite in2="hardAlpha" operator="arithmetic" k2="-1" k3="1"/>
<feColorMatrix type="matrix" values="0 0 0 0 0.819608 0 0 0 0 0.682353 0 0 0 0 0.333333 0 0 0 0.15 0"/>
<feBlend mode="normal" in2="shape" result="effect1_innerShadow_3701_27892"/>
</filter>
</defs>
</svg>
