<svg width="40" height="41" viewBox="0 0 40 41" fill="none" xmlns="http://www.w3.org/2000/svg">
<g filter="url(#filter0_i_3281_23556)">
<path d="M20 40.4888C31.0457 40.4888 40 31.5345 40 20.4888C40 9.44307 31.0457 0.48877 20 0.48877C8.9543 0.48877 0 9.44307 0 20.4888C0 31.5345 8.9543 40.4888 20 40.4888Z" fill="#222222"/>
</g>
<path d="M22.4311 27.3089C22.2411 27.3089 22.0511 27.2389 21.9011 27.0889C21.6111 26.7989 21.6111 26.3189 21.9011 26.0289L27.441 20.4889L21.9011 14.9489C21.6111 14.6589 21.6111 14.1789 21.9011 13.8889C22.1911 13.5989 22.671 13.5989 22.961 13.8889L29.0311 19.9589C29.3211 20.2489 29.3211 20.7289 29.0311 21.0189L22.961 27.0889C22.811 27.2389 22.6211 27.3089 22.4311 27.3089Z" fill="#D1AE55"/>
<path d="M28.33 21.2388H11.5C11.09 21.2388 10.75 20.8988 10.75 20.4888C10.75 20.0788 11.09 19.7388 11.5 19.7388H28.33C28.74 19.7388 29.08 20.0788 29.08 20.4888C29.08 20.8988 28.74 21.2388 28.33 21.2388Z" fill="#D1AE55"/>
<defs>
<filter id="filter0_i_3281_23556" x="0" y="0.48877" width="42" height="42" filterUnits="userSpaceOnUse" color-interpolation-filters="sRGB">
<feFlood flood-opacity="0" result="BackgroundImageFix"/>
<feBlend mode="normal" in="SourceGraphic" in2="BackgroundImageFix" result="shape"/>
<feColorMatrix in="SourceAlpha" type="matrix" values="0 0 0 0 0 0 0 0 0 0 0 0 0 0 0 0 0 0 127 0" result="hardAlpha"/>
<feOffset dx="2" dy="2"/>
<feGaussianBlur stdDeviation="2"/>
<feComposite in2="hardAlpha" operator="arithmetic" k2="-1" k3="1"/>
<feColorMatrix type="matrix" values="0 0 0 0 0.819608 0 0 0 0 0.682353 0 0 0 0 0.333333 0 0 0 0.15 0"/>
<feBlend mode="normal" in2="shape" result="effect1_innerShadow_3281_23556"/>
</filter>
</defs>
</svg>

