<svg width="50" height="50" viewBox="0 0 50 50" fill="none" xmlns="http://www.w3.org/2000/svg">
<path d="M41.3367 1H8.16715C4.20884 1 1 4.20826 1 8.16586V41.3294C1 45.287 4.20884 48.4953 8.16715 48.4953H41.3367C45.295 48.4953 48.5039 45.287 48.5039 41.3294V8.16586C48.5039 4.20826 45.295 1 41.3367 1Z" stroke="url(#paint0_linear_1347_1370)" stroke-width="2" stroke-miterlimit="10"/>
<path d="M32.6668 28.3337C32.3335 28.167 30.1668 27.167 29.8335 27.0003C29.5002 26.8337 29.1668 26.8337 28.8335 27.167C28.5002 27.5003 27.8335 28.5003 27.5002 28.8337C27.3335 29.167 27.0002 29.167 26.6668 29.0003C25.5002 28.5003 24.3335 27.8337 23.3335 27.0003C22.5002 26.167 21.6668 25.167 21.0002 24.167C20.8335 23.8337 21.0002 23.5003 21.1668 23.3337C21.3335 23.167 21.5002 22.8337 21.8335 22.667C22.0002 22.5003 22.1668 22.167 22.1668 22.0003C22.3335 21.8337 22.3335 21.5003 22.1668 21.3337C22.0002 21.167 21.1668 19.167 20.8335 18.3337C20.6668 17.167 20.3335 17.167 20.0002 17.167H19.1668C18.8335 17.167 18.3335 17.5003 18.1668 17.667C17.1668 18.667 16.6668 19.8337 16.6668 21.167C16.8335 22.667 17.3335 24.167 18.3335 25.5003C20.1668 28.167 22.5002 30.3337 25.3335 31.667C26.1668 32.0003 26.8335 32.3337 27.6668 32.5003C28.5002 32.8337 29.3335 32.8337 30.3335 32.667C31.5002 32.5003 32.5002 31.667 33.1668 30.667C33.5002 30.0003 33.5002 29.3337 33.3335 28.667L32.6668 28.3337ZM36.8335 13.167C30.3335 6.66699 19.8335 6.66699 13.3335 13.167C8.00016 18.5003 7.00016 26.667 10.6668 33.167L8.3335 41.667L17.1668 39.3337C19.6668 40.667 22.3335 41.3337 25.0002 41.3337C34.1668 41.3337 41.5002 34.0003 41.5002 24.8337C41.6668 20.5003 39.8335 16.3337 36.8335 13.167ZM32.3335 36.5003C30.1668 37.8337 27.6668 38.667 25.0002 38.667C22.5002 38.667 20.1668 38.0003 18.0002 36.8337L17.5002 36.5003L12.3335 37.8337L13.6668 32.8337L13.3335 32.3337C9.3335 25.667 11.3335 17.3337 17.8335 13.167C24.3335 9.00033 32.6668 11.167 36.6668 17.5003C40.6668 24.0003 38.8335 32.5003 32.3335 36.5003Z" fill="url(#paint1_linear_1347_1370)"/>
<defs>
<linearGradient id="paint0_linear_1347_1370" x1="-4.00866" y1="7.17837" x2="54.068" y2="39.7178" gradientUnits="userSpaceOnUse">
<stop stop-color="#A8A9AD"/>
<stop offset="0.190104" stop-color="#B4B5B8"/>
<stop offset="0.335938" stop-color="#C0C0C3"/>
<stop offset="0.507812" stop-color="#CBCCCD"/>
<stop offset="0.747396" stop-color="#E3E3E3"/>
<stop offset="1" stop-color="#D7D7D8"/>
</linearGradient>
<linearGradient id="paint1_linear_1347_1370" x1="8.26103" y1="25.1627" x2="36.7681" y2="25.1627" gradientUnits="userSpaceOnUse">
<stop offset="0.301587" stop-color="#C0C0C3"/>
<stop offset="0.380952" stop-color="#E3E3E3"/>
<stop offset="0.507936" stop-color="#CBCCCD"/>
<stop offset="0.595238" stop-color="#D7D7D8"/>
<stop offset="0.626984" stop-color="#CFD0D1"/>
<stop offset="0.677083" stop-color="#CFD0D1"/>
<stop offset="0.833333" stop-color="#A8A9AD"/>
<stop offset="0.952381" stop-color="#B4B5B8"/>
</linearGradient>
</defs>
</svg>
